<mxfile host="app.diagrams.net" modified="2022-04-26T06:25:09.693Z" agent="5.0 (Windows NT 10.0; Win64; x64) AppleWebKit/537.36 (KHTML, like Gecko) Chrome/100.0.4896.127 Safari/537.36" etag="1wyZV-Dd4pHBn5q_Il9Z" version="17.4.6" type="github" pages="2">
  <diagram id="owH88kbiLFVOIeeBzZcx" name="Page-1">
    <mxGraphModel dx="868" dy="425" grid="1" gridSize="10" guides="1" tooltips="1" connect="1" arrows="1" fold="1" page="1" pageScale="1" pageWidth="850" pageHeight="1100" math="0" shadow="0">
      <root>
        <mxCell id="0" />
        <mxCell id="1" parent="0" />
        <mxCell id="UJMOczX7DfV2FB-4b8eR-1" value="&lt;div align=&quot;left&quot;&gt;&lt;u&gt;&lt;b&gt;&lt;font style=&quot;font-size: 17px&quot;&gt;&lt;br&gt;&lt;/font&gt;&lt;/b&gt;&lt;/u&gt;&lt;/div&gt;&lt;div align=&quot;left&quot;&gt;&lt;u&gt;&lt;b&gt;&lt;font style=&quot;font-size: 17px&quot;&gt;&lt;br&gt;&lt;/font&gt;&lt;/b&gt;&lt;/u&gt;&lt;/div&gt;&lt;div align=&quot;left&quot;&gt;&lt;u&gt;&lt;b&gt;&lt;font style=&quot;font-size: 17px&quot;&gt;&lt;/font&gt;&lt;/b&gt;&lt;/u&gt;&lt;b&gt;&lt;font style=&quot;font-size: 17px&quot;&gt;&lt;span style=&quot;white-space: pre&quot;&gt;&lt;span style=&quot;white-space: pre&quot;&gt; &lt;/span&gt; &lt;/span&gt;&lt;/font&gt;&lt;/b&gt;&lt;u&gt;&lt;b&gt;&lt;font style=&quot;font-size: 17px&quot;&gt;Window Navigation Diagram&lt;/font&gt;&lt;/b&gt;&lt;/u&gt;&lt;/div&gt;&lt;div align=&quot;left&quot;&gt;&lt;u&gt;&lt;b&gt;&lt;font style=&quot;font-size: 17px&quot;&gt;&lt;/font&gt;&lt;/b&gt;&lt;/u&gt;&lt;b&gt;&lt;font style=&quot;font-size: 17px&quot;&gt;&lt;span style=&quot;white-space: pre&quot;&gt;&lt;span style=&quot;white-space: pre&quot;&gt; &lt;/span&gt; &lt;/span&gt;&lt;/font&gt;&lt;/b&gt;&lt;u&gt;&lt;b&gt;&lt;font style=&quot;font-size: 17px&quot;&gt;for PocketKaraoke&lt;/font&gt;&lt;/b&gt;&lt;/u&gt;&lt;/div&gt;&lt;div align=&quot;left&quot;&gt;&lt;br&gt;&lt;/div&gt;&lt;div align=&quot;left&quot;&gt;&lt;br&gt;&lt;/div&gt;&lt;div align=&quot;left&quot;&gt;&lt;br&gt;&lt;/div&gt;" style="rounded=0;whiteSpace=wrap;html=1;fontSize=9;fillColor=none;align=left;" parent="1" vertex="1">
          <mxGeometry x="8" y="10" width="802" height="120" as="geometry" />
        </mxCell>
        <mxCell id="UJMOczX7DfV2FB-4b8eR-2" value="&lt;table dir=&quot;ltr&quot; style=&quot;table-layout: fixed ; font-size: 10pt ; font-family: &amp;quot;arial&amp;quot; ; width: 0px ; border-collapse: collapse ; border: none&quot; cellspacing=&quot;0&quot; cellpadding=&quot;0&quot; border=&quot;1&quot;&gt;&lt;colgroup&gt;&lt;col width=&quot;98&quot;&gt;&lt;col width=&quot;235&quot;&gt;&lt;col width=&quot;143&quot;&gt;&lt;/colgroup&gt;&lt;tbody&gt;&lt;tr style=&quot;height: 21px&quot;&gt;&lt;td style=&quot;border-color: rgb(0, 0, 0); border-style: solid; border-width: 1px; overflow: hidden; padding: 0px 3px; vertical-align: middle; font-size: 12pt; font-weight: bold; overflow-wrap: break-word; text-align: center;&quot; rowspan=&quot;3&quot; colspan=&quot;1&quot;&gt;&lt;span&gt;&lt;div style=&quot;max-height: 63px&quot;&gt;9&lt;/div&gt;&lt;/span&gt;&lt;/td&gt;&lt;td style=&quot;border-top: 1px solid rgb(0, 0, 0); border-right: 1px solid rgb(0, 0, 0); border-bottom: 1px solid rgb(0, 0, 0); overflow: hidden; padding: 0px 3px; vertical-align: bottom; overflow-wrap: break-word;&quot;&gt;Md. Fuad Hasan&lt;/td&gt;&lt;td style=&quot;border-top: 1px solid rgb(0, 0, 0); border-right: 1px solid rgb(0, 0, 0); border-bottom: 1px solid rgb(0, 0, 0); overflow: hidden; padding: 0px 3px; vertical-align: bottom; overflow-wrap: break-word; text-align: center;&quot;&gt;20101345&lt;/td&gt;&lt;/tr&gt;&lt;tr style=&quot;height: 21px&quot;&gt;&lt;td style=&quot;border-right: 1px solid rgb(0, 0, 0); border-bottom: 1px solid rgb(0, 0, 0); overflow: hidden; padding: 0px 3px; vertical-align: bottom; overflow-wrap: break-word;&quot;&gt;Ahmed Awsaf Chowdhury&lt;/td&gt;&lt;td style=&quot;border-right: 1px solid rgb(0, 0, 0); border-bottom: 1px solid rgb(0, 0, 0); overflow: hidden; padding: 0px 3px; vertical-align: bottom; overflow-wrap: break-word; text-align: center;&quot;&gt;20101344&lt;/td&gt;&lt;/tr&gt;&lt;tr style=&quot;height: 21px&quot;&gt;&lt;td style=&quot;border-right: 1px solid rgb(0, 0, 0); border-bottom: 1px solid rgb(0, 0, 0); overflow: hidden; padding: 0px 3px; vertical-align: bottom; overflow-wrap: break-word;&quot;&gt;Shariful Islam&lt;/td&gt;&lt;td style=&quot;border-right: 1px solid rgb(0, 0, 0); border-bottom: 1px solid rgb(0, 0, 0); overflow: hidden; padding: 0px 3px; vertical-align: bottom; overflow-wrap: break-word; text-align: center;&quot;&gt;19201053&lt;/td&gt;&lt;/tr&gt;&lt;/tbody&gt;&lt;/table&gt;" style="text;whiteSpace=wrap;html=1;" parent="1" vertex="1">
          <mxGeometry x="320.00000000000006" y="10" width="476.43" height="80" as="geometry" />
        </mxCell>
        <mxCell id="ohhDE87T0RinIK9Tm88y-26" value="" style="rounded=0;whiteSpace=wrap;html=1;" parent="1" vertex="1">
          <mxGeometry x="359" y="290" width="140" height="470" as="geometry" />
        </mxCell>
        <mxCell id="ohhDE87T0RinIK9Tm88y-25" style="edgeStyle=orthogonalEdgeStyle;rounded=0;orthogonalLoop=1;jettySize=auto;html=1;exitX=0;exitY=0.25;exitDx=0;exitDy=0;entryX=1;entryY=0.417;entryDx=0;entryDy=0;entryPerimeter=0;" parent="1" source="ohhDE87T0RinIK9Tm88y-34" target="ohhDE87T0RinIK9Tm88y-35" edge="1">
          <mxGeometry relative="1" as="geometry">
            <Array as="points">
              <mxPoint x="369" y="640" />
              <mxPoint x="260" y="640" />
              <mxPoint x="260" y="386" />
            </Array>
          </mxGeometry>
        </mxCell>
        <mxCell id="ohhDE87T0RinIK9Tm88y-27" value="&amp;lt;&amp;lt;Form&amp;gt;&amp;gt;" style="text;html=1;strokeColor=none;fillColor=none;align=center;verticalAlign=middle;whiteSpace=wrap;rounded=0;" parent="1" vertex="1">
          <mxGeometry x="399" y="290" width="60" height="30" as="geometry" />
        </mxCell>
        <mxCell id="ohhDE87T0RinIK9Tm88y-29" value="Sign in" style="rounded=0;whiteSpace=wrap;html=1;" parent="1" vertex="1">
          <mxGeometry x="369" y="430" width="120" height="70" as="geometry" />
        </mxCell>
        <mxCell id="ohhDE87T0RinIK9Tm88y-31" value="Forgot your password" style="rounded=0;whiteSpace=wrap;html=1;" parent="1" vertex="1">
          <mxGeometry x="369" y="510" width="120" height="70" as="geometry" />
        </mxCell>
        <mxCell id="ohhDE87T0RinIK9Tm88y-32" value="&lt;div&gt;Login Form&lt;/div&gt;&lt;div&gt;(Email, Password)&lt;br&gt;&lt;/div&gt;" style="text;html=1;strokeColor=none;fillColor=none;align=center;verticalAlign=middle;whiteSpace=wrap;rounded=0;" parent="1" vertex="1">
          <mxGeometry x="399" y="330" width="60" height="60" as="geometry" />
        </mxCell>
        <mxCell id="ohhDE87T0RinIK9Tm88y-34" value="Sign up" style="rounded=0;whiteSpace=wrap;html=1;" parent="1" vertex="1">
          <mxGeometry x="369" y="590" width="120" height="70" as="geometry" />
        </mxCell>
        <mxCell id="ohhDE87T0RinIK9Tm88y-35" value="" style="rounded=0;whiteSpace=wrap;html=1;" parent="1" vertex="1">
          <mxGeometry x="69" y="290" width="140" height="230" as="geometry" />
        </mxCell>
        <mxCell id="ohhDE87T0RinIK9Tm88y-36" value="&amp;lt;&amp;lt;Form&amp;gt;&amp;gt;" style="text;html=1;strokeColor=none;fillColor=none;align=center;verticalAlign=middle;whiteSpace=wrap;rounded=0;" parent="1" vertex="1">
          <mxGeometry x="109" y="290" width="60" height="30" as="geometry" />
        </mxCell>
        <mxCell id="ohhDE87T0RinIK9Tm88y-38" value="Signup" style="rounded=0;whiteSpace=wrap;html=1;" parent="1" vertex="1">
          <mxGeometry x="79" y="410" width="120" height="90" as="geometry" />
        </mxCell>
        <mxCell id="ohhDE87T0RinIK9Tm88y-39" value="&lt;div&gt;Signup Form&lt;/div&gt;&lt;div&gt;(Name,Email, Password)&lt;br&gt;&lt;/div&gt;" style="text;html=1;strokeColor=none;fillColor=none;align=center;verticalAlign=middle;whiteSpace=wrap;rounded=0;" parent="1" vertex="1">
          <mxGeometry x="109" y="330" width="60" height="60" as="geometry" />
        </mxCell>
        <mxCell id="ohhDE87T0RinIK9Tm88y-43" value="" style="rounded=0;whiteSpace=wrap;html=1;" parent="1" vertex="1">
          <mxGeometry x="609" y="290" width="140" height="230" as="geometry" />
        </mxCell>
        <mxCell id="ohhDE87T0RinIK9Tm88y-44" value="&amp;lt;&amp;lt;Form&amp;gt;&amp;gt;" style="text;html=1;strokeColor=none;fillColor=none;align=center;verticalAlign=middle;whiteSpace=wrap;rounded=0;" parent="1" vertex="1">
          <mxGeometry x="649" y="290" width="60" height="30" as="geometry" />
        </mxCell>
        <mxCell id="ohhDE87T0RinIK9Tm88y-46" value="Send password reset link" style="rounded=0;whiteSpace=wrap;html=1;" parent="1" vertex="1">
          <mxGeometry x="619" y="420" width="120" height="80" as="geometry" />
        </mxCell>
        <mxCell id="ohhDE87T0RinIK9Tm88y-47" value="&lt;div&gt;Reset Password Form&lt;/div&gt;&lt;div&gt;(Email)&lt;br&gt;&lt;/div&gt;" style="text;html=1;strokeColor=none;fillColor=none;align=center;verticalAlign=middle;whiteSpace=wrap;rounded=0;" parent="1" vertex="1">
          <mxGeometry x="649" y="330" width="60" height="60" as="geometry" />
        </mxCell>
        <mxCell id="ohhDE87T0RinIK9Tm88y-48" value="" style="endArrow=classic;html=1;rounded=0;exitX=0.5;exitY=0;exitDx=0;exitDy=0;startArrow=none;" parent="1" source="ohhDE87T0RinIK9Tm88y-99" edge="1">
          <mxGeometry width="50" height="50" relative="1" as="geometry">
            <mxPoint x="490" y="480" as="sourcePoint" />
            <mxPoint x="609" y="400" as="targetPoint" />
            <Array as="points">
              <mxPoint x="560" y="400" />
            </Array>
          </mxGeometry>
        </mxCell>
        <mxCell id="ohhDE87T0RinIK9Tm88y-50" value="Language" style="rounded=0;whiteSpace=wrap;html=1;" parent="1" vertex="1">
          <mxGeometry x="369" y="670" width="120" height="60" as="geometry" />
        </mxCell>
        <mxCell id="ohhDE87T0RinIK9Tm88y-42" style="edgeStyle=orthogonalEdgeStyle;rounded=0;orthogonalLoop=1;jettySize=auto;html=1;exitX=0.5;exitY=1;exitDx=0;exitDy=0;entryX=1.021;entryY=0.557;entryDx=0;entryDy=0;entryPerimeter=0;startArrow=none;" parent="1" source="ohhDE87T0RinIK9Tm88y-101" target="ohhDE87T0RinIK9Tm88y-26" edge="1">
          <mxGeometry relative="1" as="geometry" />
        </mxCell>
        <mxCell id="ohhDE87T0RinIK9Tm88y-53" value="" style="rounded=0;whiteSpace=wrap;html=1;" parent="1" vertex="1">
          <mxGeometry x="659" y="570" width="140" height="230" as="geometry" />
        </mxCell>
        <mxCell id="ohhDE87T0RinIK9Tm88y-54" value="&amp;lt;&amp;lt;Window&amp;gt;&amp;gt;" style="text;html=1;strokeColor=none;fillColor=none;align=center;verticalAlign=middle;whiteSpace=wrap;rounded=0;" parent="1" vertex="1">
          <mxGeometry x="699" y="570" width="60" height="30" as="geometry" />
        </mxCell>
        <mxCell id="ohhDE87T0RinIK9Tm88y-56" value="Bangla" style="rounded=0;whiteSpace=wrap;html=1;" parent="1" vertex="1">
          <mxGeometry x="669" y="640" width="120" height="75" as="geometry" />
        </mxCell>
        <mxCell id="ohhDE87T0RinIK9Tm88y-57" value="&lt;div&gt;Laguage&lt;/div&gt;" style="text;html=1;strokeColor=none;fillColor=none;align=center;verticalAlign=middle;whiteSpace=wrap;rounded=0;" parent="1" vertex="1">
          <mxGeometry x="691.57" y="580" width="60" height="60" as="geometry" />
        </mxCell>
        <mxCell id="ohhDE87T0RinIK9Tm88y-58" style="edgeStyle=orthogonalEdgeStyle;rounded=0;orthogonalLoop=1;jettySize=auto;html=1;exitX=1;exitY=0.25;exitDx=0;exitDy=0;entryX=0.026;entryY=0.174;entryDx=0;entryDy=0;entryPerimeter=0;" parent="1" source="ohhDE87T0RinIK9Tm88y-50" target="ohhDE87T0RinIK9Tm88y-53" edge="1">
          <mxGeometry relative="1" as="geometry">
            <mxPoint x="689" y="510" as="sourcePoint" />
            <mxPoint x="511.94000000000005" y="600.78" as="targetPoint" />
          </mxGeometry>
        </mxCell>
        <mxCell id="ohhDE87T0RinIK9Tm88y-60" value="English" style="rounded=0;whiteSpace=wrap;html=1;" parent="1" vertex="1">
          <mxGeometry x="669" y="730" width="120" height="60" as="geometry" />
        </mxCell>
        <mxCell id="ohhDE87T0RinIK9Tm88y-61" style="edgeStyle=orthogonalEdgeStyle;rounded=0;orthogonalLoop=1;jettySize=auto;html=1;exitX=0;exitY=0.25;exitDx=0;exitDy=0;entryX=1.029;entryY=0.807;entryDx=0;entryDy=0;entryPerimeter=0;" parent="1" source="ohhDE87T0RinIK9Tm88y-56" target="ohhDE87T0RinIK9Tm88y-26" edge="1">
          <mxGeometry relative="1" as="geometry">
            <mxPoint x="550" y="867.48" as="sourcePoint" />
            <mxPoint x="721.0699999999999" y="820" as="targetPoint" />
          </mxGeometry>
        </mxCell>
        <mxCell id="ohhDE87T0RinIK9Tm88y-62" style="edgeStyle=orthogonalEdgeStyle;rounded=0;orthogonalLoop=1;jettySize=auto;html=1;exitX=0;exitY=0.25;exitDx=0;exitDy=0;" parent="1" source="ohhDE87T0RinIK9Tm88y-60" edge="1">
          <mxGeometry relative="1" as="geometry">
            <mxPoint x="676.4299999999998" y="752.5" as="sourcePoint" />
            <mxPoint x="499" y="744" as="targetPoint" />
            <Array as="points">
              <mxPoint x="669" y="770" />
              <mxPoint x="550" y="770" />
              <mxPoint x="550" y="744" />
            </Array>
          </mxGeometry>
        </mxCell>
        <mxCell id="ohhDE87T0RinIK9Tm88y-63" value="" style="rounded=0;whiteSpace=wrap;html=1;" parent="1" vertex="1">
          <mxGeometry x="150" y="700" width="140" height="320" as="geometry" />
        </mxCell>
        <mxCell id="ohhDE87T0RinIK9Tm88y-64" value="&amp;lt;&amp;lt;Window&amp;gt;&amp;gt;" style="text;html=1;strokeColor=none;fillColor=none;align=center;verticalAlign=middle;whiteSpace=wrap;rounded=0;" parent="1" vertex="1">
          <mxGeometry x="190" y="700" width="60" height="30" as="geometry" />
        </mxCell>
        <mxCell id="ohhDE87T0RinIK9Tm88y-66" value="Songs" style="rounded=0;whiteSpace=wrap;html=1;" parent="1" vertex="1">
          <mxGeometry x="160" y="800" width="120" height="60" as="geometry" />
        </mxCell>
        <mxCell id="ohhDE87T0RinIK9Tm88y-67" value="&lt;div&gt;Songlist&lt;/div&gt;" style="text;html=1;strokeColor=none;fillColor=none;align=center;verticalAlign=middle;whiteSpace=wrap;rounded=0;" parent="1" vertex="1">
          <mxGeometry x="182.57000000000005" y="710" width="60" height="60" as="geometry" />
        </mxCell>
        <mxCell id="ohhDE87T0RinIK9Tm88y-69" value="Profile" style="rounded=0;whiteSpace=wrap;html=1;" parent="1" vertex="1">
          <mxGeometry x="160" y="870" width="120" height="50" as="geometry" />
        </mxCell>
        <mxCell id="ohhDE87T0RinIK9Tm88y-71" value="FilterList" style="rounded=0;whiteSpace=wrap;html=1;" parent="1" vertex="1">
          <mxGeometry x="160" y="930" width="120" height="70" as="geometry" />
        </mxCell>
        <mxCell id="ohhDE87T0RinIK9Tm88y-72" style="edgeStyle=orthogonalEdgeStyle;rounded=0;orthogonalLoop=1;jettySize=auto;html=1;exitX=1;exitY=0;exitDx=0;exitDy=0;entryX=1.014;entryY=0.925;entryDx=0;entryDy=0;entryPerimeter=0;" parent="1" source="ohhDE87T0RinIK9Tm88y-71" target="ohhDE87T0RinIK9Tm88y-63" edge="1">
          <mxGeometry relative="1" as="geometry">
            <mxPoint x="676.4299999999998" y="827.5" as="sourcePoint" />
            <mxPoint x="400" y="970" as="targetPoint" />
            <Array as="points">
              <mxPoint x="320" y="970" />
              <mxPoint x="320" y="996" />
            </Array>
          </mxGeometry>
        </mxCell>
        <mxCell id="ohhDE87T0RinIK9Tm88y-75" style="edgeStyle=orthogonalEdgeStyle;rounded=0;orthogonalLoop=1;jettySize=auto;html=1;exitX=1;exitY=0;exitDx=0;exitDy=0;entryX=0;entryY=0.1;entryDx=0;entryDy=0;entryPerimeter=0;" parent="1" target="ohhDE87T0RinIK9Tm88y-76" edge="1">
          <mxGeometry relative="1" as="geometry">
            <mxPoint x="280" y="904.5" as="sourcePoint" />
            <mxPoint x="400" y="904.5" as="targetPoint" />
            <Array as="points">
              <mxPoint x="465" y="905" />
              <mxPoint x="465" y="890" />
              <mxPoint x="570" y="890" />
              <mxPoint x="570" y="847" />
            </Array>
          </mxGeometry>
        </mxCell>
        <mxCell id="ohhDE87T0RinIK9Tm88y-76" value="" style="rounded=0;whiteSpace=wrap;html=1;" parent="1" vertex="1">
          <mxGeometry x="650.6" y="815" width="140" height="275" as="geometry" />
        </mxCell>
        <mxCell id="ohhDE87T0RinIK9Tm88y-77" value="&amp;lt;&amp;lt;Window&amp;gt;&amp;gt;" style="text;html=1;strokeColor=none;fillColor=none;align=center;verticalAlign=middle;whiteSpace=wrap;rounded=0;" parent="1" vertex="1">
          <mxGeometry x="690.6" y="815" width="60" height="30" as="geometry" />
        </mxCell>
        <mxCell id="ohhDE87T0RinIK9Tm88y-79" value="Explicit toggle" style="rounded=0;whiteSpace=wrap;html=1;" parent="1" vertex="1">
          <mxGeometry x="660.6" y="870" width="120" height="60" as="geometry" />
        </mxCell>
        <mxCell id="ohhDE87T0RinIK9Tm88y-80" value="&lt;div&gt;Profile&lt;/div&gt;" style="text;html=1;strokeColor=none;fillColor=none;align=center;verticalAlign=middle;whiteSpace=wrap;rounded=0;" parent="1" vertex="1">
          <mxGeometry x="683.1700000000001" y="825" width="60" height="60" as="geometry" />
        </mxCell>
        <mxCell id="ohhDE87T0RinIK9Tm88y-82" value="Genre selection" style="rounded=0;whiteSpace=wrap;html=1;" parent="1" vertex="1">
          <mxGeometry x="660.6" y="940" width="120" height="65" as="geometry" />
        </mxCell>
        <mxCell id="ohhDE87T0RinIK9Tm88y-84" value="Save" style="rounded=0;whiteSpace=wrap;html=1;" parent="1" vertex="1">
          <mxGeometry x="660.6" y="1020" width="120" height="55" as="geometry" />
        </mxCell>
        <mxCell id="ohhDE87T0RinIK9Tm88y-85" style="edgeStyle=orthogonalEdgeStyle;rounded=0;orthogonalLoop=1;jettySize=auto;html=1;exitX=0;exitY=0.5;exitDx=0;exitDy=0;entryX=0;entryY=0.322;entryDx=0;entryDy=0;entryPerimeter=0;" parent="1" source="ohhDE87T0RinIK9Tm88y-79" edge="1">
          <mxGeometry relative="1" as="geometry">
            <mxPoint x="291.6" y="819.5" as="sourcePoint" />
            <mxPoint x="650.5999999999999" y="879.99" as="targetPoint" />
            <Array as="points">
              <mxPoint x="610" y="915" />
              <mxPoint x="610" y="880" />
            </Array>
          </mxGeometry>
        </mxCell>
        <mxCell id="ohhDE87T0RinIK9Tm88y-86" style="edgeStyle=orthogonalEdgeStyle;rounded=0;orthogonalLoop=1;jettySize=auto;html=1;exitX=0;exitY=0.5;exitDx=0;exitDy=0;entryX=0;entryY=0.322;entryDx=0;entryDy=0;entryPerimeter=0;" parent="1" edge="1">
          <mxGeometry relative="1" as="geometry">
            <mxPoint x="660.6" y="982" as="sourcePoint" />
            <mxPoint x="650.6" y="955.04" as="targetPoint" />
            <Array as="points">
              <mxPoint x="611.6" y="982" />
              <mxPoint x="611.6" y="955" />
            </Array>
          </mxGeometry>
        </mxCell>
        <mxCell id="ohhDE87T0RinIK9Tm88y-87" style="edgeStyle=orthogonalEdgeStyle;rounded=0;orthogonalLoop=1;jettySize=auto;html=1;exitX=0;exitY=0.5;exitDx=0;exitDy=0;entryX=0;entryY=0.322;entryDx=0;entryDy=0;entryPerimeter=0;" parent="1" edge="1">
          <mxGeometry relative="1" as="geometry">
            <mxPoint x="658.03" y="1052" as="sourcePoint" />
            <mxPoint x="648.03" y="1025.04" as="targetPoint" />
            <Array as="points">
              <mxPoint x="609.03" y="1052" />
              <mxPoint x="609.03" y="1025" />
            </Array>
          </mxGeometry>
        </mxCell>
        <mxCell id="ohhDE87T0RinIK9Tm88y-90" value="" style="endArrow=classic;html=1;rounded=0;exitX=0;exitY=0.25;exitDx=0;exitDy=0;entryX=0.75;entryY=0;entryDx=0;entryDy=0;" parent="1" source="ohhDE87T0RinIK9Tm88y-29" target="ohhDE87T0RinIK9Tm88y-64" edge="1">
          <mxGeometry width="50" height="50" relative="1" as="geometry">
            <mxPoint x="499" y="567.5" as="sourcePoint" />
            <mxPoint x="619" y="410" as="targetPoint" />
          </mxGeometry>
        </mxCell>
        <mxCell id="ohhDE87T0RinIK9Tm88y-91" value="" style="endArrow=classic;html=1;rounded=0;exitX=1;exitY=0.5;exitDx=0;exitDy=0;" parent="1" source="ohhDE87T0RinIK9Tm88y-29" edge="1">
          <mxGeometry width="50" height="50" relative="1" as="geometry">
            <mxPoint x="509" y="577.5" as="sourcePoint" />
            <mxPoint x="500" y="460" as="targetPoint" />
            <Array as="points">
              <mxPoint x="530" y="485" />
              <mxPoint x="530" y="460" />
            </Array>
          </mxGeometry>
        </mxCell>
        <mxCell id="ohhDE87T0RinIK9Tm88y-92" value="" style="endArrow=classic;html=1;rounded=0;exitX=0.408;exitY=1;exitDx=0;exitDy=0;entryX=0;entryY=0;entryDx=0;entryDy=0;exitPerimeter=0;" parent="1" source="ohhDE87T0RinIK9Tm88y-38" target="ohhDE87T0RinIK9Tm88y-64" edge="1">
          <mxGeometry width="50" height="50" relative="1" as="geometry">
            <mxPoint x="379" y="487.5" as="sourcePoint" />
            <mxPoint x="245" y="710" as="targetPoint" />
          </mxGeometry>
        </mxCell>
        <mxCell id="ohhDE87T0RinIK9Tm88y-93" value="click signup" style="text;html=1;strokeColor=none;fillColor=none;align=center;verticalAlign=middle;whiteSpace=wrap;rounded=0;fontSize=13;" parent="1" vertex="1">
          <mxGeometry x="270" y="450" width="60" height="30" as="geometry" />
        </mxCell>
        <mxCell id="ohhDE87T0RinIK9Tm88y-94" value="click&lt;br&gt;[if signup success]" style="text;html=1;strokeColor=none;fillColor=none;align=center;verticalAlign=middle;whiteSpace=wrap;rounded=0;fontSize=13;" parent="1" vertex="1">
          <mxGeometry x="79" y="560" width="60" height="30" as="geometry" />
        </mxCell>
        <mxCell id="ohhDE87T0RinIK9Tm88y-95" value="" style="endArrow=classic;html=1;rounded=0;exitX=0;exitY=0.25;exitDx=0;exitDy=0;entryX=0.007;entryY=0.396;entryDx=0;entryDy=0;entryPerimeter=0;" parent="1" source="ohhDE87T0RinIK9Tm88y-38" target="ohhDE87T0RinIK9Tm88y-35" edge="1">
          <mxGeometry width="50" height="50" relative="1" as="geometry">
            <mxPoint x="137.96000000000004" y="510" as="sourcePoint" />
            <mxPoint x="200" y="710" as="targetPoint" />
            <Array as="points">
              <mxPoint x="30" y="430" />
            </Array>
          </mxGeometry>
        </mxCell>
        <mxCell id="ohhDE87T0RinIK9Tm88y-96" value="click&lt;br&gt;[if signup failed]" style="text;html=1;strokeColor=none;fillColor=none;align=center;verticalAlign=middle;whiteSpace=wrap;rounded=0;fontSize=13;" parent="1" vertex="1">
          <mxGeometry y="360" width="60" height="30" as="geometry" />
        </mxCell>
        <mxCell id="ohhDE87T0RinIK9Tm88y-97" value="click&lt;br&gt;[if signup&amp;nbsp;&lt;br&gt;success]" style="text;html=1;strokeColor=none;fillColor=none;align=center;verticalAlign=middle;whiteSpace=wrap;rounded=0;fontSize=13;" parent="1" vertex="1">
          <mxGeometry x="270" y="500" width="60" height="30" as="geometry" />
        </mxCell>
        <mxCell id="ohhDE87T0RinIK9Tm88y-98" value="click&lt;br&gt;[if signup failed]" style="text;html=1;strokeColor=none;fillColor=none;align=center;verticalAlign=middle;whiteSpace=wrap;rounded=0;fontSize=13;" parent="1" vertex="1">
          <mxGeometry x="499" y="420" width="60" height="30" as="geometry" />
        </mxCell>
        <mxCell id="ohhDE87T0RinIK9Tm88y-99" value="click forgot password" style="text;html=1;strokeColor=none;fillColor=none;align=center;verticalAlign=middle;whiteSpace=wrap;rounded=0;fontSize=13;" parent="1" vertex="1">
          <mxGeometry x="528.21" y="490" width="60" height="30" as="geometry" />
        </mxCell>
        <mxCell id="ohhDE87T0RinIK9Tm88y-100" value="" style="endArrow=none;html=1;rounded=0;exitX=1;exitY=0.25;exitDx=0;exitDy=0;" parent="1" source="ohhDE87T0RinIK9Tm88y-31" target="ohhDE87T0RinIK9Tm88y-99" edge="1">
          <mxGeometry width="50" height="50" relative="1" as="geometry">
            <mxPoint x="489" y="557.5" as="sourcePoint" />
            <mxPoint x="609" y="400" as="targetPoint" />
            <Array as="points">
              <mxPoint x="560" y="558" />
            </Array>
          </mxGeometry>
        </mxCell>
        <mxCell id="ohhDE87T0RinIK9Tm88y-101" value="click pass reset" style="text;html=1;strokeColor=none;fillColor=none;align=center;verticalAlign=middle;whiteSpace=wrap;rounded=0;fontSize=13;" parent="1" vertex="1">
          <mxGeometry x="580" y="540" width="60" height="30" as="geometry" />
        </mxCell>
        <mxCell id="ohhDE87T0RinIK9Tm88y-102" value="" style="edgeStyle=orthogonalEdgeStyle;rounded=0;orthogonalLoop=1;jettySize=auto;html=1;exitX=0.5;exitY=1;exitDx=0;exitDy=0;entryX=1.021;entryY=0.557;entryDx=0;entryDy=0;entryPerimeter=0;endArrow=none;" parent="1" source="ohhDE87T0RinIK9Tm88y-46" target="ohhDE87T0RinIK9Tm88y-101" edge="1">
          <mxGeometry relative="1" as="geometry">
            <mxPoint x="679" y="500" as="sourcePoint" />
            <mxPoint x="501.94000000000005" y="551.79" as="targetPoint" />
          </mxGeometry>
        </mxCell>
        <mxCell id="ohhDE87T0RinIK9Tm88y-103" value="click language" style="text;html=1;strokeColor=none;fillColor=none;align=center;verticalAlign=middle;whiteSpace=wrap;rounded=0;fontSize=13;" parent="1" vertex="1">
          <mxGeometry x="580" y="620" width="60" height="30" as="geometry" />
        </mxCell>
        <mxCell id="0wEsxX-FGUgccfrczTZL-1" value="click on profile" style="text;html=1;strokeColor=none;fillColor=none;align=center;verticalAlign=middle;whiteSpace=wrap;rounded=0;fontSize=13;" parent="1" vertex="1">
          <mxGeometry x="330" y="860" width="60" height="30" as="geometry" />
        </mxCell>
        <mxCell id="0wEsxX-FGUgccfrczTZL-2" value="set filter" style="text;html=1;strokeColor=none;fillColor=none;align=center;verticalAlign=middle;whiteSpace=wrap;rounded=0;fontSize=13;" parent="1" vertex="1">
          <mxGeometry x="330" y="960" width="60" height="30" as="geometry" />
        </mxCell>
        <mxCell id="0wEsxX-FGUgccfrczTZL-3" value="toggle explicit filter" style="text;html=1;strokeColor=none;fillColor=none;align=center;verticalAlign=middle;whiteSpace=wrap;rounded=0;fontSize=13;" parent="1" vertex="1">
          <mxGeometry x="540" y="900" width="60" height="30" as="geometry" />
        </mxCell>
        <mxCell id="0wEsxX-FGUgccfrczTZL-4" value="select genre" style="text;html=1;strokeColor=none;fillColor=none;align=center;verticalAlign=middle;whiteSpace=wrap;rounded=0;fontSize=13;" parent="1" vertex="1">
          <mxGeometry x="540" y="960" width="60" height="30" as="geometry" />
        </mxCell>
        <mxCell id="0wEsxX-FGUgccfrczTZL-5" value="click save" style="text;html=1;strokeColor=none;fillColor=none;align=center;verticalAlign=middle;whiteSpace=wrap;rounded=0;fontSize=13;" parent="1" vertex="1">
          <mxGeometry x="540" y="1040" width="60" height="30" as="geometry" />
        </mxCell>
        <mxCell id="0wEsxX-FGUgccfrczTZL-6" value="click Bangla" style="text;html=1;strokeColor=none;fillColor=none;align=center;verticalAlign=middle;whiteSpace=wrap;rounded=0;fontSize=13;" parent="1" vertex="1">
          <mxGeometry x="590.6" y="700" width="60" height="30" as="geometry" />
        </mxCell>
        <mxCell id="0wEsxX-FGUgccfrczTZL-7" value="click English" style="text;html=1;strokeColor=none;fillColor=none;align=center;verticalAlign=middle;whiteSpace=wrap;rounded=0;fontSize=13;" parent="1" vertex="1">
          <mxGeometry x="588.21" y="740" width="60" height="30" as="geometry" />
        </mxCell>
        <mxCell id="kIgLjkbzQSGgk2S7y9AT-1" value="This is where&amp;nbsp; user will signup, login or use the option to reset password" style="text;html=1;strokeColor=none;fillColor=none;align=center;verticalAlign=middle;whiteSpace=wrap;rounded=0;fontSize=13;" parent="1" vertex="1">
          <mxGeometry x="70" y="170" width="289" height="30" as="geometry" />
        </mxCell>
        <mxCell id="kIgLjkbzQSGgk2S7y9AT-2" value="This is where&amp;nbsp; user will update their profile and preference" style="text;html=1;strokeColor=none;fillColor=none;align=center;verticalAlign=middle;whiteSpace=wrap;rounded=0;fontSize=13;" parent="1" vertex="1">
          <mxGeometry x="242.57" y="1045" width="289" height="30" as="geometry" />
        </mxCell>
        <mxCell id="FicCZCAtW18CN3MxQ0hN-3" value="&amp;lt;&amp;lt;button&amp;gt;&amp;gt;" style="text;html=1;strokeColor=none;fillColor=none;align=center;verticalAlign=middle;whiteSpace=wrap;rounded=0;" parent="1" vertex="1">
          <mxGeometry x="109" y="410" width="60" height="30" as="geometry" />
        </mxCell>
        <mxCell id="FicCZCAtW18CN3MxQ0hN-4" value="&amp;lt;&amp;lt;button&amp;gt;&amp;gt;" style="text;html=1;strokeColor=none;fillColor=none;align=center;verticalAlign=middle;whiteSpace=wrap;rounded=0;" parent="1" vertex="1">
          <mxGeometry x="395" y="430" width="60" height="30" as="geometry" />
        </mxCell>
        <mxCell id="FicCZCAtW18CN3MxQ0hN-5" value="&amp;lt;&amp;lt;button&amp;gt;&amp;gt;" style="text;html=1;strokeColor=none;fillColor=none;align=center;verticalAlign=middle;whiteSpace=wrap;rounded=0;" parent="1" vertex="1">
          <mxGeometry x="399" y="510" width="60" height="30" as="geometry" />
        </mxCell>
        <mxCell id="FicCZCAtW18CN3MxQ0hN-6" value="&amp;lt;&amp;lt;button&amp;gt;&amp;gt;" style="text;html=1;strokeColor=none;fillColor=none;align=center;verticalAlign=middle;whiteSpace=wrap;rounded=0;" parent="1" vertex="1">
          <mxGeometry x="399" y="590" width="60" height="30" as="geometry" />
        </mxCell>
        <mxCell id="FicCZCAtW18CN3MxQ0hN-7" value="&amp;lt;&amp;lt;button&amp;gt;&amp;gt;" style="text;html=1;strokeColor=none;fillColor=none;align=center;verticalAlign=middle;whiteSpace=wrap;rounded=0;" parent="1" vertex="1">
          <mxGeometry x="399" y="670" width="60" height="30" as="geometry" />
        </mxCell>
        <mxCell id="FicCZCAtW18CN3MxQ0hN-8" value="&amp;lt;&amp;lt;button&amp;gt;&amp;gt;" style="text;html=1;strokeColor=none;fillColor=none;align=center;verticalAlign=middle;whiteSpace=wrap;rounded=0;" parent="1" vertex="1">
          <mxGeometry x="650.6" y="420" width="60" height="30" as="geometry" />
        </mxCell>
        <mxCell id="FicCZCAtW18CN3MxQ0hN-9" value="&amp;lt;&amp;lt;button&amp;gt;&amp;gt;" style="text;html=1;strokeColor=none;fillColor=none;align=center;verticalAlign=middle;whiteSpace=wrap;rounded=0;" parent="1" vertex="1">
          <mxGeometry x="699" y="640" width="60" height="30" as="geometry" />
        </mxCell>
        <mxCell id="FicCZCAtW18CN3MxQ0hN-10" value="&amp;lt;&amp;lt;button&amp;gt;&amp;gt;" style="text;html=1;strokeColor=none;fillColor=none;align=center;verticalAlign=middle;whiteSpace=wrap;rounded=0;" parent="1" vertex="1">
          <mxGeometry x="699" y="730" width="60" height="30" as="geometry" />
        </mxCell>
        <mxCell id="FicCZCAtW18CN3MxQ0hN-12" value="&amp;lt;&amp;lt;button&amp;gt;&amp;gt;" style="text;html=1;strokeColor=none;fillColor=none;align=center;verticalAlign=middle;whiteSpace=wrap;rounded=0;" parent="1" vertex="1">
          <mxGeometry x="190" y="800" width="60" height="30" as="geometry" />
        </mxCell>
        <mxCell id="FicCZCAtW18CN3MxQ0hN-13" value="&amp;lt;&amp;lt;button&amp;gt;&amp;gt;" style="text;html=1;strokeColor=none;fillColor=none;align=center;verticalAlign=middle;whiteSpace=wrap;rounded=0;" parent="1" vertex="1">
          <mxGeometry x="190" y="870" width="60" height="30" as="geometry" />
        </mxCell>
        <mxCell id="FicCZCAtW18CN3MxQ0hN-14" value="&amp;lt;&amp;lt;button&amp;gt;&amp;gt;" style="text;html=1;strokeColor=none;fillColor=none;align=center;verticalAlign=middle;whiteSpace=wrap;rounded=0;" parent="1" vertex="1">
          <mxGeometry x="190" y="930" width="60" height="30" as="geometry" />
        </mxCell>
        <mxCell id="FicCZCAtW18CN3MxQ0hN-15" value="&amp;lt;&amp;lt;button&amp;gt;&amp;gt;" style="text;html=1;strokeColor=none;fillColor=none;align=center;verticalAlign=middle;whiteSpace=wrap;rounded=0;" parent="1" vertex="1">
          <mxGeometry x="689" y="870" width="60" height="30" as="geometry" />
        </mxCell>
        <mxCell id="FicCZCAtW18CN3MxQ0hN-16" value="&amp;lt;&amp;lt;button&amp;gt;&amp;gt;" style="text;html=1;strokeColor=none;fillColor=none;align=center;verticalAlign=middle;whiteSpace=wrap;rounded=0;" parent="1" vertex="1">
          <mxGeometry x="689" y="937.5" width="60" height="30" as="geometry" />
        </mxCell>
        <mxCell id="FicCZCAtW18CN3MxQ0hN-17" value="&amp;lt;&amp;lt;button&amp;gt;&amp;gt;" style="text;html=1;strokeColor=none;fillColor=none;align=center;verticalAlign=middle;whiteSpace=wrap;rounded=0;" parent="1" vertex="1">
          <mxGeometry x="689" y="1020" width="60" height="30" as="geometry" />
        </mxCell>
      </root>
    </mxGraphModel>
  </diagram>
  <diagram id="yTDzXqVm4RIyxyTog45N" name="Page-2">
    <mxGraphModel dx="2170" dy="1063" grid="1" gridSize="10" guides="1" tooltips="1" connect="1" arrows="1" fold="1" page="1" pageScale="1" pageWidth="1400" pageHeight="1700" math="0" shadow="0">
      <root>
        <mxCell id="0" />
        <mxCell id="1" parent="0" />
        <mxCell id="16KeeTD6f36M3qxBFshb-17" style="edgeStyle=orthogonalEdgeStyle;rounded=0;orthogonalLoop=1;jettySize=auto;html=1;exitX=1;exitY=0.75;exitDx=0;exitDy=0;entryX=-0.019;entryY=0.456;entryDx=0;entryDy=0;entryPerimeter=0;" edge="1" parent="1" source="ifJcrgHHRRP8PeEXDCk2-1" target="ifJcrgHHRRP8PeEXDCk2-18">
          <mxGeometry relative="1" as="geometry" />
        </mxCell>
        <mxCell id="16KeeTD6f36M3qxBFshb-18" style="edgeStyle=orthogonalEdgeStyle;rounded=0;orthogonalLoop=1;jettySize=auto;html=1;exitX=1;exitY=0.25;exitDx=0;exitDy=0;entryX=0;entryY=0.25;entryDx=0;entryDy=0;" edge="1" parent="1" source="ifJcrgHHRRP8PeEXDCk2-1" target="ifJcrgHHRRP8PeEXDCk2-12">
          <mxGeometry relative="1" as="geometry" />
        </mxCell>
        <mxCell id="ifJcrgHHRRP8PeEXDCk2-1" value="" style="rounded=0;whiteSpace=wrap;html=1;" parent="1" vertex="1">
          <mxGeometry x="1043" y="182.88" width="140" height="385" as="geometry" />
        </mxCell>
        <mxCell id="ifJcrgHHRRP8PeEXDCk2-2" value="&amp;lt;&amp;lt;Window&amp;gt;&amp;gt;" style="text;html=1;strokeColor=none;fillColor=none;align=center;verticalAlign=middle;whiteSpace=wrap;rounded=0;" parent="1" vertex="1">
          <mxGeometry x="1083" y="192.88" width="60" height="30" as="geometry" />
        </mxCell>
        <mxCell id="ifJcrgHHRRP8PeEXDCk2-4" value="History" style="rounded=0;whiteSpace=wrap;html=1;" parent="1" vertex="1">
          <mxGeometry x="1053" y="332.88" width="120" height="70" as="geometry" />
        </mxCell>
        <mxCell id="ifJcrgHHRRP8PeEXDCk2-6" value="Record" style="rounded=0;whiteSpace=wrap;html=1;" parent="1" vertex="1">
          <mxGeometry x="1053" y="412.88" width="120" height="70" as="geometry" />
        </mxCell>
        <mxCell id="ifJcrgHHRRP8PeEXDCk2-8" value="Play" style="rounded=0;whiteSpace=wrap;html=1;" parent="1" vertex="1">
          <mxGeometry x="1053" y="492.88" width="120" height="70" as="geometry" />
        </mxCell>
        <mxCell id="ifJcrgHHRRP8PeEXDCk2-10" value="Join tournament" style="rounded=0;whiteSpace=wrap;html=1;" parent="1" vertex="1">
          <mxGeometry x="1053" y="252.88" width="120" height="70" as="geometry" />
        </mxCell>
        <mxCell id="ifJcrgHHRRP8PeEXDCk2-12" value="" style="rounded=0;whiteSpace=wrap;html=1;" parent="1" vertex="1">
          <mxGeometry x="1240" y="222.88" width="140" height="210" as="geometry" />
        </mxCell>
        <mxCell id="ifJcrgHHRRP8PeEXDCk2-13" value="&amp;lt;&amp;lt;Window&amp;gt;&amp;gt;" style="text;html=1;strokeColor=none;fillColor=none;align=center;verticalAlign=middle;whiteSpace=wrap;rounded=0;" parent="1" vertex="1">
          <mxGeometry x="1280" y="232.88" width="60" height="30" as="geometry" />
        </mxCell>
        <mxCell id="ifJcrgHHRRP8PeEXDCk2-15" value="Join Tournament" style="rounded=0;whiteSpace=wrap;html=1;" parent="1" vertex="1">
          <mxGeometry x="1250" y="342.88" width="120" height="70" as="geometry" />
        </mxCell>
        <mxCell id="ifJcrgHHRRP8PeEXDCk2-17" value="Enter Tournament id" style="rounded=0;whiteSpace=wrap;html=1;" parent="1" vertex="1">
          <mxGeometry x="1250" y="262.88" width="120" height="70" as="geometry" />
        </mxCell>
        <mxCell id="ifJcrgHHRRP8PeEXDCk2-18" value="" style="rounded=0;whiteSpace=wrap;html=1;" parent="1" vertex="1">
          <mxGeometry x="1240" y="468.5" width="140" height="210" as="geometry" />
        </mxCell>
        <mxCell id="ifJcrgHHRRP8PeEXDCk2-19" value="&amp;lt;&amp;lt;Window&amp;gt;&amp;gt;" style="text;html=1;strokeColor=none;fillColor=none;align=center;verticalAlign=middle;whiteSpace=wrap;rounded=0;" parent="1" vertex="1">
          <mxGeometry x="1280" y="478.5" width="60" height="30" as="geometry" />
        </mxCell>
        <mxCell id="ifJcrgHHRRP8PeEXDCk2-21" value="Show regional Tournament History" style="rounded=0;whiteSpace=wrap;html=1;" parent="1" vertex="1">
          <mxGeometry x="1250" y="588.5" width="120" height="70" as="geometry" />
        </mxCell>
        <mxCell id="ifJcrgHHRRP8PeEXDCk2-23" value="Show local tournament History" style="rounded=0;whiteSpace=wrap;html=1;" parent="1" vertex="1">
          <mxGeometry x="1250" y="508.5" width="120" height="70" as="geometry" />
        </mxCell>
        <mxCell id="ifJcrgHHRRP8PeEXDCk2-24" value="" style="rounded=0;whiteSpace=wrap;html=1;" parent="1" vertex="1">
          <mxGeometry x="803" y="211" width="140" height="290" as="geometry" />
        </mxCell>
        <mxCell id="ifJcrgHHRRP8PeEXDCk2-25" value="&amp;lt;&amp;lt;Window&amp;gt;&amp;gt;" style="text;html=1;strokeColor=none;fillColor=none;align=center;verticalAlign=middle;whiteSpace=wrap;rounded=0;" parent="1" vertex="1">
          <mxGeometry x="843" y="221" width="60" height="30" as="geometry" />
        </mxCell>
        <mxCell id="ifJcrgHHRRP8PeEXDCk2-27" value="Stop Recording" style="rounded=0;whiteSpace=wrap;html=1;" parent="1" vertex="1">
          <mxGeometry x="813" y="331" width="120" height="70" as="geometry" />
        </mxCell>
        <mxCell id="ifJcrgHHRRP8PeEXDCk2-29" value="Start Recording" style="rounded=0;whiteSpace=wrap;html=1;" parent="1" vertex="1">
          <mxGeometry x="813" y="251" width="120" height="70" as="geometry" />
        </mxCell>
        <mxCell id="ifJcrgHHRRP8PeEXDCk2-30" value="" style="rounded=0;whiteSpace=wrap;html=1;" parent="1" vertex="1">
          <mxGeometry x="803" y="551" width="140" height="110" as="geometry" />
        </mxCell>
        <mxCell id="ifJcrgHHRRP8PeEXDCk2-31" value="&amp;lt;&amp;lt;Window&amp;gt;&amp;gt;" style="text;html=1;strokeColor=none;fillColor=none;align=center;verticalAlign=middle;whiteSpace=wrap;rounded=0;" parent="1" vertex="1">
          <mxGeometry x="843" y="561" width="60" height="30" as="geometry" />
        </mxCell>
        <mxCell id="ifJcrgHHRRP8PeEXDCk2-32" value="&amp;lt;&amp;lt;Button&amp;gt;&amp;gt;" style="rounded=0;whiteSpace=wrap;html=1;" parent="1" vertex="1">
          <mxGeometry x="813" y="601" width="120" height="30" as="geometry" />
        </mxCell>
        <mxCell id="ifJcrgHHRRP8PeEXDCk2-33" value="Show Tournament History" style="rounded=0;whiteSpace=wrap;html=1;" parent="1" vertex="1">
          <mxGeometry x="813" y="631" width="120" height="30" as="geometry" />
        </mxCell>
        <mxCell id="ifJcrgHHRRP8PeEXDCk2-34" value="" style="rounded=0;whiteSpace=wrap;html=1;" parent="1" vertex="1">
          <mxGeometry x="803" y="531" width="140" height="130" as="geometry" />
        </mxCell>
        <mxCell id="ifJcrgHHRRP8PeEXDCk2-35" value="&amp;lt;&amp;lt;Window&amp;gt;&amp;gt;" style="text;html=1;strokeColor=none;fillColor=none;align=center;verticalAlign=middle;whiteSpace=wrap;rounded=0;" parent="1" vertex="1">
          <mxGeometry x="843" y="541" width="60" height="30" as="geometry" />
        </mxCell>
        <mxCell id="ifJcrgHHRRP8PeEXDCk2-37" value="Select audio to play" style="rounded=0;whiteSpace=wrap;html=1;" parent="1" vertex="1">
          <mxGeometry x="813" y="571" width="120" height="70" as="geometry" />
        </mxCell>
        <mxCell id="ifJcrgHHRRP8PeEXDCk2-39" value="Save" style="rounded=0;whiteSpace=wrap;html=1;" parent="1" vertex="1">
          <mxGeometry x="813" y="411" width="120" height="75" as="geometry" />
        </mxCell>
        <mxCell id="ifJcrgHHRRP8PeEXDCk2-44" value="Click play" style="text;html=1;strokeColor=none;fillColor=none;align=center;verticalAlign=middle;whiteSpace=wrap;rounded=0;" parent="1" vertex="1">
          <mxGeometry x="943" y="566" width="60" height="30" as="geometry" />
        </mxCell>
        <mxCell id="ifJcrgHHRRP8PeEXDCk2-45" value="Click record" style="text;html=1;strokeColor=none;fillColor=none;align=center;verticalAlign=middle;whiteSpace=wrap;rounded=0;" parent="1" vertex="1">
          <mxGeometry x="980" y="366" width="60" height="30" as="geometry" />
        </mxCell>
        <mxCell id="ifJcrgHHRRP8PeEXDCk2-46" value="Click History" style="text;html=1;strokeColor=none;fillColor=none;align=center;verticalAlign=middle;whiteSpace=wrap;rounded=0;" parent="1" vertex="1">
          <mxGeometry x="1180" y="578.5" width="60" height="30" as="geometry" />
        </mxCell>
        <mxCell id="ifJcrgHHRRP8PeEXDCk2-47" value="Click Join tournament" style="text;html=1;strokeColor=none;fillColor=none;align=center;verticalAlign=middle;whiteSpace=wrap;rounded=0;" parent="1" vertex="1">
          <mxGeometry x="1190" y="231.62" width="40" height="30" as="geometry" />
        </mxCell>
        <mxCell id="ifJcrgHHRRP8PeEXDCk2-48" value="" style="rounded=0;whiteSpace=wrap;html=1;" parent="1" vertex="1">
          <mxGeometry x="585" y="1027" width="140" height="475" as="geometry" />
        </mxCell>
        <mxCell id="ifJcrgHHRRP8PeEXDCk2-49" value="&amp;lt;&amp;lt;Window&amp;gt;&amp;gt;" style="text;html=1;strokeColor=none;fillColor=none;align=center;verticalAlign=middle;whiteSpace=wrap;rounded=0;" parent="1" vertex="1">
          <mxGeometry x="625" y="1037" width="60" height="30" as="geometry" />
        </mxCell>
        <mxCell id="ifJcrgHHRRP8PeEXDCk2-51" value="See Challenge Histroy" style="rounded=0;whiteSpace=wrap;html=1;" parent="1" vertex="1">
          <mxGeometry x="595" y="1177" width="120" height="70" as="geometry" />
        </mxCell>
        <mxCell id="ifJcrgHHRRP8PeEXDCk2-53" value="Record" style="rounded=0;whiteSpace=wrap;html=1;" parent="1" vertex="1">
          <mxGeometry x="595" y="1257" width="120" height="70" as="geometry" />
        </mxCell>
        <mxCell id="ifJcrgHHRRP8PeEXDCk2-55" value="Play" style="rounded=0;whiteSpace=wrap;html=1;" parent="1" vertex="1">
          <mxGeometry x="595" y="1347" width="120" height="60" as="geometry" />
        </mxCell>
        <mxCell id="ifJcrgHHRRP8PeEXDCk2-57" value="Send Challenge" style="rounded=0;whiteSpace=wrap;html=1;" parent="1" vertex="1">
          <mxGeometry x="595" y="1087" width="120" height="80" as="geometry" />
        </mxCell>
        <mxCell id="ifJcrgHHRRP8PeEXDCk2-58" value="" style="rounded=0;whiteSpace=wrap;html=1;" parent="1" vertex="1">
          <mxGeometry x="245" y="1297" width="140" height="110" as="geometry" />
        </mxCell>
        <mxCell id="ifJcrgHHRRP8PeEXDCk2-59" value="&amp;lt;&amp;lt;Window&amp;gt;&amp;gt;" style="text;html=1;strokeColor=none;fillColor=none;align=center;verticalAlign=middle;whiteSpace=wrap;rounded=0;" parent="1" vertex="1">
          <mxGeometry x="285" y="1307" width="60" height="30" as="geometry" />
        </mxCell>
        <mxCell id="ifJcrgHHRRP8PeEXDCk2-60" value="&amp;lt;&amp;lt;Button&amp;gt;&amp;gt;" style="rounded=0;whiteSpace=wrap;html=1;" parent="1" vertex="1">
          <mxGeometry x="255" y="1347" width="120" height="30" as="geometry" />
        </mxCell>
        <mxCell id="ifJcrgHHRRP8PeEXDCk2-61" value="Show Tournament History" style="rounded=0;whiteSpace=wrap;html=1;" parent="1" vertex="1">
          <mxGeometry x="255" y="1377" width="120" height="30" as="geometry" />
        </mxCell>
        <mxCell id="ifJcrgHHRRP8PeEXDCk2-62" value="" style="rounded=0;whiteSpace=wrap;html=1;" parent="1" vertex="1">
          <mxGeometry x="245" y="1277" width="140" height="130" as="geometry" />
        </mxCell>
        <mxCell id="ifJcrgHHRRP8PeEXDCk2-63" value="&amp;lt;&amp;lt;Window&amp;gt;&amp;gt;" style="text;html=1;strokeColor=none;fillColor=none;align=center;verticalAlign=middle;whiteSpace=wrap;rounded=0;" parent="1" vertex="1">
          <mxGeometry x="285" y="1287" width="60" height="30" as="geometry" />
        </mxCell>
        <mxCell id="ifJcrgHHRRP8PeEXDCk2-65" value="Select audio to play" style="rounded=0;whiteSpace=wrap;html=1;" parent="1" vertex="1">
          <mxGeometry x="255" y="1317" width="120" height="70" as="geometry" />
        </mxCell>
        <mxCell id="ifJcrgHHRRP8PeEXDCk2-68" value="Add effect" style="rounded=0;whiteSpace=wrap;html=1;" parent="1" vertex="1">
          <mxGeometry x="595" y="1417" width="120" height="65" as="geometry" />
        </mxCell>
        <mxCell id="ifJcrgHHRRP8PeEXDCk2-69" value="" style="rounded=0;whiteSpace=wrap;html=1;" parent="1" vertex="1">
          <mxGeometry x="245" y="1452" width="140" height="210" as="geometry" />
        </mxCell>
        <mxCell id="ifJcrgHHRRP8PeEXDCk2-70" value="&amp;lt;&amp;lt;Window&amp;gt;&amp;gt;" style="text;html=1;strokeColor=none;fillColor=none;align=center;verticalAlign=middle;whiteSpace=wrap;rounded=0;" parent="1" vertex="1">
          <mxGeometry x="285" y="1462" width="60" height="30" as="geometry" />
        </mxCell>
        <mxCell id="ifJcrgHHRRP8PeEXDCk2-72" value="Choose song to add to" style="rounded=0;whiteSpace=wrap;html=1;" parent="1" vertex="1">
          <mxGeometry x="255" y="1577" width="120" height="65" as="geometry" />
        </mxCell>
        <mxCell id="ifJcrgHHRRP8PeEXDCk2-74" value="Select effect" style="rounded=0;whiteSpace=wrap;html=1;" parent="1" vertex="1">
          <mxGeometry x="255" y="1497" width="120" height="65" as="geometry" />
        </mxCell>
        <mxCell id="ifJcrgHHRRP8PeEXDCk2-75" value="" style="rounded=0;whiteSpace=wrap;html=1;" parent="1" vertex="1">
          <mxGeometry x="245" y="957" width="140" height="290" as="geometry" />
        </mxCell>
        <mxCell id="ifJcrgHHRRP8PeEXDCk2-76" value="&amp;lt;&amp;lt;Window&amp;gt;&amp;gt;" style="text;html=1;strokeColor=none;fillColor=none;align=center;verticalAlign=middle;whiteSpace=wrap;rounded=0;" parent="1" vertex="1">
          <mxGeometry x="285" y="967" width="60" height="30" as="geometry" />
        </mxCell>
        <mxCell id="ifJcrgHHRRP8PeEXDCk2-78" value="Stop Recording" style="rounded=0;whiteSpace=wrap;html=1;" parent="1" vertex="1">
          <mxGeometry x="255" y="1077" width="120" height="70" as="geometry" />
        </mxCell>
        <mxCell id="ifJcrgHHRRP8PeEXDCk2-80" value="Start Recording" style="rounded=0;whiteSpace=wrap;html=1;" parent="1" vertex="1">
          <mxGeometry x="255" y="997" width="120" height="70" as="geometry" />
        </mxCell>
        <mxCell id="ifJcrgHHRRP8PeEXDCk2-82" value="Save" style="rounded=0;whiteSpace=wrap;html=1;" parent="1" vertex="1">
          <mxGeometry x="255" y="1157" width="120" height="75" as="geometry" />
        </mxCell>
        <mxCell id="ifJcrgHHRRP8PeEXDCk2-83" style="edgeStyle=orthogonalEdgeStyle;rounded=0;orthogonalLoop=1;jettySize=auto;html=1;exitX=0;exitY=0.5;exitDx=0;exitDy=0;" parent="1" source="ifJcrgHHRRP8PeEXDCk2-84" edge="1">
          <mxGeometry relative="1" as="geometry">
            <mxPoint x="855" y="1047" as="targetPoint" />
          </mxGeometry>
        </mxCell>
        <mxCell id="ifJcrgHHRRP8PeEXDCk2-84" value="" style="rounded=0;whiteSpace=wrap;html=1;" parent="1" vertex="1">
          <mxGeometry x="855" y="937" width="140" height="210" as="geometry" />
        </mxCell>
        <mxCell id="ifJcrgHHRRP8PeEXDCk2-85" value="&amp;lt;&amp;lt;Window&amp;gt;&amp;gt;" style="text;html=1;strokeColor=none;fillColor=none;align=center;verticalAlign=middle;whiteSpace=wrap;rounded=0;" parent="1" vertex="1">
          <mxGeometry x="895" y="947" width="60" height="30" as="geometry" />
        </mxCell>
        <mxCell id="ifJcrgHHRRP8PeEXDCk2-87" value="Send Challenge" style="rounded=0;whiteSpace=wrap;html=1;" parent="1" vertex="1">
          <mxGeometry x="865" y="1057" width="120" height="70" as="geometry" />
        </mxCell>
        <mxCell id="ifJcrgHHRRP8PeEXDCk2-89" value="Enter Friend id" style="rounded=0;whiteSpace=wrap;html=1;" parent="1" vertex="1">
          <mxGeometry x="865" y="987" width="120" height="60" as="geometry" />
        </mxCell>
        <mxCell id="ifJcrgHHRRP8PeEXDCk2-90" value="" style="rounded=0;whiteSpace=wrap;html=1;" parent="1" vertex="1">
          <mxGeometry x="855" y="1187" width="140" height="135" as="geometry" />
        </mxCell>
        <mxCell id="ifJcrgHHRRP8PeEXDCk2-91" value="&amp;lt;&amp;lt;Window&amp;gt;&amp;gt;" style="text;html=1;strokeColor=none;fillColor=none;align=center;verticalAlign=middle;whiteSpace=wrap;rounded=0;" parent="1" vertex="1">
          <mxGeometry x="895" y="1197" width="60" height="30" as="geometry" />
        </mxCell>
        <mxCell id="ifJcrgHHRRP8PeEXDCk2-93" value="Show challenge history" style="rounded=0;whiteSpace=wrap;html=1;" parent="1" vertex="1">
          <mxGeometry x="865" y="1227" width="120" height="70" as="geometry" />
        </mxCell>
        <mxCell id="ifJcrgHHRRP8PeEXDCk2-94" value="" style="endArrow=classic;html=1;rounded=0;exitX=-0.01;exitY=0.571;exitDx=0;exitDy=0;exitPerimeter=0;" parent="1" source="ifJcrgHHRRP8PeEXDCk2-48" edge="1">
          <mxGeometry width="50" height="50" relative="1" as="geometry">
            <mxPoint x="465" y="1182" as="sourcePoint" />
            <mxPoint x="390" y="1132" as="targetPoint" />
            <Array as="points">
              <mxPoint x="495" y="1298" />
              <mxPoint x="495" y="1132" />
            </Array>
          </mxGeometry>
        </mxCell>
        <mxCell id="ifJcrgHHRRP8PeEXDCk2-95" value="" style="endArrow=classic;html=1;rounded=0;exitX=-0.01;exitY=0.721;exitDx=0;exitDy=0;exitPerimeter=0;entryX=1;entryY=0.689;entryDx=0;entryDy=0;entryPerimeter=0;" parent="1" source="ifJcrgHHRRP8PeEXDCk2-48" target="ifJcrgHHRRP8PeEXDCk2-62" edge="1">
          <mxGeometry width="50" height="50" relative="1" as="geometry">
            <mxPoint x="485" y="1462" as="sourcePoint" />
            <mxPoint x="485" y="1352" as="targetPoint" />
          </mxGeometry>
        </mxCell>
        <mxCell id="ifJcrgHHRRP8PeEXDCk2-96" value="" style="endArrow=classic;html=1;rounded=0;entryX=1;entryY=0.5;entryDx=0;entryDy=0;exitX=-0.01;exitY=0.892;exitDx=0;exitDy=0;exitPerimeter=0;" parent="1" source="ifJcrgHHRRP8PeEXDCk2-48" target="ifJcrgHHRRP8PeEXDCk2-69" edge="1">
          <mxGeometry width="50" height="50" relative="1" as="geometry">
            <mxPoint x="525" y="1462" as="sourcePoint" />
            <mxPoint x="535" y="1532" as="targetPoint" />
            <Array as="points">
              <mxPoint x="535" y="1451" />
              <mxPoint x="535" y="1557" />
            </Array>
          </mxGeometry>
        </mxCell>
        <mxCell id="ifJcrgHHRRP8PeEXDCk2-97" value="" style="endArrow=classic;html=1;rounded=0;exitX=1.01;exitY=0.39;exitDx=0;exitDy=0;exitPerimeter=0;entryX=0.01;entryY=0.187;entryDx=0;entryDy=0;entryPerimeter=0;" parent="1" source="ifJcrgHHRRP8PeEXDCk2-48" target="ifJcrgHHRRP8PeEXDCk2-90" edge="1">
          <mxGeometry width="50" height="50" relative="1" as="geometry">
            <mxPoint x="885" y="1422" as="sourcePoint" />
            <mxPoint x="845" y="1212" as="targetPoint" />
            <Array as="points" />
          </mxGeometry>
        </mxCell>
        <mxCell id="ifJcrgHHRRP8PeEXDCk2-98" value="" style="endArrow=classic;html=1;rounded=0;entryX=0;entryY=0.25;entryDx=0;entryDy=0;exitX=1;exitY=0.25;exitDx=0;exitDy=0;" parent="1" source="ifJcrgHHRRP8PeEXDCk2-48" target="ifJcrgHHRRP8PeEXDCk2-84" edge="1">
          <mxGeometry width="50" height="50" relative="1" as="geometry">
            <mxPoint x="755" y="990" as="sourcePoint" />
            <mxPoint x="695" y="902" as="targetPoint" />
            <Array as="points">
              <mxPoint x="795" y="1146" />
              <mxPoint x="795" y="990" />
            </Array>
          </mxGeometry>
        </mxCell>
        <mxCell id="16KeeTD6f36M3qxBFshb-19" style="edgeStyle=orthogonalEdgeStyle;rounded=0;orthogonalLoop=1;jettySize=auto;html=1;exitX=0.25;exitY=1;exitDx=0;exitDy=0;" edge="1" parent="1" source="ifJcrgHHRRP8PeEXDCk2-99">
          <mxGeometry relative="1" as="geometry">
            <mxPoint x="614.230769230769" y="1024.3076923076922" as="targetPoint" />
          </mxGeometry>
        </mxCell>
        <mxCell id="ifJcrgHHRRP8PeEXDCk2-99" value="" style="rounded=0;whiteSpace=wrap;html=1;" parent="1" vertex="1">
          <mxGeometry x="580" y="411" width="140" height="325" as="geometry" />
        </mxCell>
        <mxCell id="ifJcrgHHRRP8PeEXDCk2-100" value="&amp;lt;&amp;lt;Window&amp;gt;&amp;gt;" style="text;html=1;strokeColor=none;fillColor=none;align=center;verticalAlign=middle;whiteSpace=wrap;rounded=0;" parent="1" vertex="1">
          <mxGeometry x="620" y="421" width="60" height="30" as="geometry" />
        </mxCell>
        <mxCell id="ifJcrgHHRRP8PeEXDCk2-102" value="Duo Karaoke" style="rounded=0;whiteSpace=wrap;html=1;" parent="1" vertex="1">
          <mxGeometry x="590" y="566" width="120" height="65" as="geometry" />
        </mxCell>
        <mxCell id="ifJcrgHHRRP8PeEXDCk2-104" value="Tournament" style="rounded=0;whiteSpace=wrap;html=1;" parent="1" vertex="1">
          <mxGeometry x="590" y="646" width="120" height="65" as="geometry" />
        </mxCell>
        <mxCell id="ifJcrgHHRRP8PeEXDCk2-106" value="Solo Karaoke" style="rounded=0;whiteSpace=wrap;html=1;" parent="1" vertex="1">
          <mxGeometry x="590" y="466" width="120" height="85" as="geometry" />
        </mxCell>
        <mxCell id="ifJcrgHHRRP8PeEXDCk2-107" value="" style="rounded=0;whiteSpace=wrap;html=1;" parent="1" vertex="1">
          <mxGeometry x="80" y="196" width="140" height="110" as="geometry" />
        </mxCell>
        <mxCell id="ifJcrgHHRRP8PeEXDCk2-108" value="&amp;lt;&amp;lt;Window&amp;gt;&amp;gt;" style="text;html=1;strokeColor=none;fillColor=none;align=center;verticalAlign=middle;whiteSpace=wrap;rounded=0;" parent="1" vertex="1">
          <mxGeometry x="120" y="206" width="60" height="30" as="geometry" />
        </mxCell>
        <mxCell id="ifJcrgHHRRP8PeEXDCk2-109" value="&amp;lt;&amp;lt;Button&amp;gt;&amp;gt;" style="rounded=0;whiteSpace=wrap;html=1;" parent="1" vertex="1">
          <mxGeometry x="90" y="246" width="120" height="30" as="geometry" />
        </mxCell>
        <mxCell id="ifJcrgHHRRP8PeEXDCk2-110" value="Show Tournament History" style="rounded=0;whiteSpace=wrap;html=1;" parent="1" vertex="1">
          <mxGeometry x="90" y="276" width="120" height="30" as="geometry" />
        </mxCell>
        <mxCell id="ifJcrgHHRRP8PeEXDCk2-111" value="" style="rounded=0;whiteSpace=wrap;html=1;" parent="1" vertex="1">
          <mxGeometry x="80" y="176" width="140" height="130" as="geometry" />
        </mxCell>
        <mxCell id="ifJcrgHHRRP8PeEXDCk2-112" value="&amp;lt;&amp;lt;Window&amp;gt;&amp;gt;" style="text;html=1;strokeColor=none;fillColor=none;align=center;verticalAlign=middle;whiteSpace=wrap;rounded=0;" parent="1" vertex="1">
          <mxGeometry x="120" y="186" width="60" height="30" as="geometry" />
        </mxCell>
        <mxCell id="ifJcrgHHRRP8PeEXDCk2-114" value="Select audio to play" style="rounded=0;whiteSpace=wrap;html=1;" parent="1" vertex="1">
          <mxGeometry x="90" y="221" width="120" height="65" as="geometry" />
        </mxCell>
        <mxCell id="ifJcrgHHRRP8PeEXDCk2-115" value="" style="rounded=0;whiteSpace=wrap;html=1;" parent="1" vertex="1">
          <mxGeometry x="330" y="574.12" width="140" height="210" as="geometry" />
        </mxCell>
        <mxCell id="ifJcrgHHRRP8PeEXDCk2-116" value="&amp;lt;&amp;lt;Window&amp;gt;&amp;gt;" style="text;html=1;strokeColor=none;fillColor=none;align=center;verticalAlign=middle;whiteSpace=wrap;rounded=0;" parent="1" vertex="1">
          <mxGeometry x="370" y="584.12" width="60" height="30" as="geometry" />
        </mxCell>
        <mxCell id="ifJcrgHHRRP8PeEXDCk2-118" value="Choose song to add to" style="rounded=0;whiteSpace=wrap;html=1;" parent="1" vertex="1">
          <mxGeometry x="340" y="692.87" width="120" height="71.25" as="geometry" />
        </mxCell>
        <mxCell id="ifJcrgHHRRP8PeEXDCk2-120" value="Select effect" style="rounded=0;whiteSpace=wrap;html=1;" parent="1" vertex="1">
          <mxGeometry x="340" y="622.87" width="120" height="61.25" as="geometry" />
        </mxCell>
        <mxCell id="ifJcrgHHRRP8PeEXDCk2-121" value="" style="rounded=0;whiteSpace=wrap;html=1;" parent="1" vertex="1">
          <mxGeometry x="327" y="251.62" width="140" height="290" as="geometry" />
        </mxCell>
        <mxCell id="ifJcrgHHRRP8PeEXDCk2-122" value="&amp;lt;&amp;lt;Window&amp;gt;&amp;gt;" style="text;html=1;strokeColor=none;fillColor=none;align=center;verticalAlign=middle;whiteSpace=wrap;rounded=0;" parent="1" vertex="1">
          <mxGeometry x="367" y="261.62" width="60" height="30" as="geometry" />
        </mxCell>
        <mxCell id="ifJcrgHHRRP8PeEXDCk2-124" value="Stop Recording" style="rounded=0;whiteSpace=wrap;html=1;" parent="1" vertex="1">
          <mxGeometry x="337" y="372.87" width="120" height="68.75" as="geometry" />
        </mxCell>
        <mxCell id="ifJcrgHHRRP8PeEXDCk2-126" value="Start Recording" style="rounded=0;whiteSpace=wrap;html=1;" parent="1" vertex="1">
          <mxGeometry x="337" y="292.87" width="120" height="68.75" as="geometry" />
        </mxCell>
        <mxCell id="ifJcrgHHRRP8PeEXDCk2-128" value="Save" style="rounded=0;whiteSpace=wrap;html=1;" parent="1" vertex="1">
          <mxGeometry x="337" y="452.87" width="120" height="73.75" as="geometry" />
        </mxCell>
        <mxCell id="ifJcrgHHRRP8PeEXDCk2-129" value="" style="rounded=0;whiteSpace=wrap;html=1;" parent="1" vertex="1">
          <mxGeometry x="70" y="397.25" width="140" height="290" as="geometry" />
        </mxCell>
        <mxCell id="ifJcrgHHRRP8PeEXDCk2-130" value="&amp;lt;&amp;lt;Window&amp;gt;&amp;gt;" style="text;html=1;strokeColor=none;fillColor=none;align=center;verticalAlign=middle;whiteSpace=wrap;rounded=0;" parent="1" vertex="1">
          <mxGeometry x="110" y="407.25" width="60" height="30" as="geometry" />
        </mxCell>
        <mxCell id="ifJcrgHHRRP8PeEXDCk2-132" value="Record" style="rounded=0;whiteSpace=wrap;html=1;" parent="1" vertex="1">
          <mxGeometry x="80" y="516" width="120" height="71.25" as="geometry" />
        </mxCell>
        <mxCell id="ifJcrgHHRRP8PeEXDCk2-134" value="Play" style="rounded=0;whiteSpace=wrap;html=1;" parent="1" vertex="1">
          <mxGeometry x="80" y="436" width="120" height="71.25" as="geometry" />
        </mxCell>
        <mxCell id="ifJcrgHHRRP8PeEXDCk2-136" value="Add effect" style="rounded=0;whiteSpace=wrap;html=1;" parent="1" vertex="1">
          <mxGeometry x="80" y="596" width="120" height="76.25" as="geometry" />
        </mxCell>
        <mxCell id="ifJcrgHHRRP8PeEXDCk2-137" value="" style="endArrow=classic;html=1;rounded=0;entryX=-0.02;entryY=0.382;entryDx=0;entryDy=0;entryPerimeter=0;" parent="1" edge="1">
          <mxGeometry width="50" height="50" relative="1" as="geometry">
            <mxPoint x="387" y="641.34" as="sourcePoint" />
            <mxPoint x="387.2000000000003" y="641.5600000000001" as="targetPoint" />
          </mxGeometry>
        </mxCell>
        <mxCell id="ifJcrgHHRRP8PeEXDCk2-138" value="" style="endArrow=classic;html=1;rounded=0;" parent="1" edge="1">
          <mxGeometry width="50" height="50" relative="1" as="geometry">
            <mxPoint x="210" y="656" as="sourcePoint" />
            <mxPoint x="330" y="656" as="targetPoint" />
          </mxGeometry>
        </mxCell>
        <mxCell id="ifJcrgHHRRP8PeEXDCk2-139" value="" style="endArrow=classic;html=1;rounded=0;entryX=-0.036;entryY=0.883;entryDx=0;entryDy=0;exitX=1.021;exitY=0.387;exitDx=0;exitDy=0;exitPerimeter=0;entryPerimeter=0;" parent="1" target="ifJcrgHHRRP8PeEXDCk2-121" edge="1" source="ifJcrgHHRRP8PeEXDCk2-129">
          <mxGeometry width="50" height="50" relative="1" as="geometry">
            <mxPoint x="370" y="533.22" as="sourcePoint" />
            <mxPoint x="490" y="530.72" as="targetPoint" />
          </mxGeometry>
        </mxCell>
        <mxCell id="ifJcrgHHRRP8PeEXDCk2-143" value="Select Duo karaoke" style="text;html=1;strokeColor=none;fillColor=none;align=center;verticalAlign=middle;whiteSpace=wrap;rounded=0;" parent="1" vertex="1">
          <mxGeometry x="552.5699999999999" y="907" width="60" height="30" as="geometry" />
        </mxCell>
        <mxCell id="ifJcrgHHRRP8PeEXDCk2-146" value="" style="endArrow=classic;html=1;rounded=0;entryX=0;entryY=0.5;entryDx=0;entryDy=0;exitX=-0.018;exitY=0.55;exitDx=0;exitDy=0;exitPerimeter=0;" parent="1" target="ifJcrgHHRRP8PeEXDCk2-111" edge="1" source="ifJcrgHHRRP8PeEXDCk2-129">
          <mxGeometry width="50" height="50" relative="1" as="geometry">
            <mxPoint x="283" y="486" as="sourcePoint" />
            <mxPoint x="203" y="376" as="targetPoint" />
            <Array as="points">
              <mxPoint x="30" y="396" />
            </Array>
          </mxGeometry>
        </mxCell>
        <mxCell id="ifJcrgHHRRP8PeEXDCk2-149" value="Select solo karaoke" style="text;html=1;strokeColor=none;fillColor=none;align=center;verticalAlign=middle;whiteSpace=wrap;rounded=0;" parent="1" vertex="1">
          <mxGeometry x="480" y="516" width="60" height="30" as="geometry" />
        </mxCell>
        <mxCell id="ifJcrgHHRRP8PeEXDCk2-150" value="Select tournament" style="text;html=1;strokeColor=none;fillColor=none;align=center;verticalAlign=middle;whiteSpace=wrap;rounded=0;" parent="1" vertex="1">
          <mxGeometry x="920" y="722.87" width="60" height="30" as="geometry" />
        </mxCell>
        <mxCell id="ifJcrgHHRRP8PeEXDCk2-151" value="Select play" style="text;html=1;strokeColor=none;fillColor=none;align=center;verticalAlign=middle;whiteSpace=wrap;rounded=0;" parent="1" vertex="1">
          <mxGeometry x="50" y="336" width="60" height="30" as="geometry" />
        </mxCell>
        <mxCell id="ifJcrgHHRRP8PeEXDCk2-152" value="Select play" style="text;html=1;strokeColor=none;fillColor=none;align=center;verticalAlign=middle;whiteSpace=wrap;rounded=0;" parent="1" vertex="1">
          <mxGeometry x="438" y="1337" width="60" height="30" as="geometry" />
        </mxCell>
        <mxCell id="ifJcrgHHRRP8PeEXDCk2-153" value="Select add effect" style="text;html=1;strokeColor=none;fillColor=none;align=center;verticalAlign=middle;whiteSpace=wrap;rounded=0;" parent="1" vertex="1">
          <mxGeometry x="438" y="1527" width="60" height="30" as="geometry" />
        </mxCell>
        <mxCell id="ifJcrgHHRRP8PeEXDCk2-154" value="Select add effect" style="text;html=1;strokeColor=none;fillColor=none;align=center;verticalAlign=middle;whiteSpace=wrap;rounded=0;" parent="1" vertex="1">
          <mxGeometry x="230" y="611" width="60" height="30" as="geometry" />
        </mxCell>
        <mxCell id="ifJcrgHHRRP8PeEXDCk2-155" value="Select record" style="text;html=1;strokeColor=none;fillColor=none;align=center;verticalAlign=middle;whiteSpace=wrap;rounded=0;" parent="1" vertex="1">
          <mxGeometry x="240" y="466" width="60" height="30" as="geometry" />
        </mxCell>
        <mxCell id="ifJcrgHHRRP8PeEXDCk2-156" value="Select record" style="text;html=1;strokeColor=none;fillColor=none;align=center;verticalAlign=middle;whiteSpace=wrap;rounded=0;" parent="1" vertex="1">
          <mxGeometry x="438" y="1097" width="60" height="30" as="geometry" />
        </mxCell>
        <mxCell id="ifJcrgHHRRP8PeEXDCk2-157" value="Select history" style="text;html=1;strokeColor=none;fillColor=none;align=center;verticalAlign=middle;whiteSpace=wrap;rounded=0;" parent="1" vertex="1">
          <mxGeometry x="768" y="1177" width="60" height="30" as="geometry" />
        </mxCell>
        <mxCell id="ifJcrgHHRRP8PeEXDCk2-158" value="Select challenge" style="text;html=1;strokeColor=none;fillColor=none;align=center;verticalAlign=middle;whiteSpace=wrap;rounded=0;" parent="1" vertex="1">
          <mxGeometry x="778" y="957" width="60" height="30" as="geometry" />
        </mxCell>
        <mxCell id="ifJcrgHHRRP8PeEXDCk2-159" value="This is where we select wither solo karaoke,duo karaoke or tournament" style="text;html=1;strokeColor=none;fillColor=none;align=center;verticalAlign=middle;whiteSpace=wrap;rounded=0;" parent="1" vertex="1">
          <mxGeometry x="510" y="622.87" width="60" height="30" as="geometry" />
        </mxCell>
        <mxCell id="ifJcrgHHRRP8PeEXDCk2-160" value="This is solo karaoke mode where one can use the app by oneself" style="text;html=1;strokeColor=none;fillColor=none;align=center;verticalAlign=middle;whiteSpace=wrap;rounded=0;" parent="1" vertex="1">
          <mxGeometry x="475" y="376.63" width="150" height="30" as="geometry" />
        </mxCell>
        <mxCell id="ifJcrgHHRRP8PeEXDCk2-161" value="This is tournament mode where one can create and join tournaments" style="text;html=1;strokeColor=none;fillColor=none;align=center;verticalAlign=middle;whiteSpace=wrap;rounded=0;" parent="1" vertex="1">
          <mxGeometry x="1053" y="136" width="150" height="30" as="geometry" />
        </mxCell>
        <mxCell id="ifJcrgHHRRP8PeEXDCk2-162" value="This is duo karaoke mode where one can challenge friends and compete" style="text;html=1;strokeColor=none;fillColor=none;align=center;verticalAlign=middle;whiteSpace=wrap;rounded=0;" parent="1" vertex="1">
          <mxGeometry x="430" y="1002" width="140" height="30" as="geometry" />
        </mxCell>
        <mxCell id="mEPZr7rLOJknM6Y2L7Yw-1" value="&amp;lt;&amp;lt;button&amp;gt;&amp;gt;" style="text;html=1;strokeColor=none;fillColor=none;align=center;verticalAlign=middle;whiteSpace=wrap;rounded=0;" parent="1" vertex="1">
          <mxGeometry x="283" y="997" width="60" height="30" as="geometry" />
        </mxCell>
        <mxCell id="mEPZr7rLOJknM6Y2L7Yw-2" value="&amp;lt;&amp;lt;button&amp;gt;&amp;gt;" style="text;html=1;strokeColor=none;fillColor=none;align=center;verticalAlign=middle;whiteSpace=wrap;rounded=0;" parent="1" vertex="1">
          <mxGeometry x="120" y="221.62" width="60" height="30" as="geometry" />
        </mxCell>
        <mxCell id="mEPZr7rLOJknM6Y2L7Yw-5" value="&amp;lt;&amp;lt;button&amp;gt;&amp;gt;" style="text;html=1;strokeColor=none;fillColor=none;align=center;verticalAlign=middle;whiteSpace=wrap;rounded=0;" parent="1" vertex="1">
          <mxGeometry x="110" y="437.25" width="60" height="30" as="geometry" />
        </mxCell>
        <mxCell id="mEPZr7rLOJknM6Y2L7Yw-6" value="&amp;lt;&amp;lt;button&amp;gt;&amp;gt;" style="text;html=1;strokeColor=none;fillColor=none;align=center;verticalAlign=middle;whiteSpace=wrap;rounded=0;" parent="1" vertex="1">
          <mxGeometry x="110" y="516" width="60" height="30" as="geometry" />
        </mxCell>
        <mxCell id="mEPZr7rLOJknM6Y2L7Yw-7" value="&amp;lt;&amp;lt;button&amp;gt;&amp;gt;" style="text;html=1;strokeColor=none;fillColor=none;align=center;verticalAlign=middle;whiteSpace=wrap;rounded=0;" parent="1" vertex="1">
          <mxGeometry x="110" y="596" width="60" height="30" as="geometry" />
        </mxCell>
        <mxCell id="mEPZr7rLOJknM6Y2L7Yw-8" value="&amp;lt;&amp;lt;button&amp;gt;&amp;gt;" style="text;html=1;strokeColor=none;fillColor=none;align=center;verticalAlign=middle;whiteSpace=wrap;rounded=0;" parent="1" vertex="1">
          <mxGeometry x="367" y="292.87" width="60" height="30" as="geometry" />
        </mxCell>
        <mxCell id="mEPZr7rLOJknM6Y2L7Yw-9" value="&amp;lt;&amp;lt;button&amp;gt;&amp;gt;" style="text;html=1;strokeColor=none;fillColor=none;align=center;verticalAlign=middle;whiteSpace=wrap;rounded=0;" parent="1" vertex="1">
          <mxGeometry x="367" y="372.87" width="60" height="30" as="geometry" />
        </mxCell>
        <mxCell id="mEPZr7rLOJknM6Y2L7Yw-10" value="&amp;lt;&amp;lt;button&amp;gt;&amp;gt;" style="text;html=1;strokeColor=none;fillColor=none;align=center;verticalAlign=middle;whiteSpace=wrap;rounded=0;" parent="1" vertex="1">
          <mxGeometry x="367" y="622.87" width="60" height="30" as="geometry" />
        </mxCell>
        <mxCell id="mEPZr7rLOJknM6Y2L7Yw-11" value="&amp;lt;&amp;lt;button&amp;gt;&amp;gt;" style="text;html=1;strokeColor=none;fillColor=none;align=center;verticalAlign=middle;whiteSpace=wrap;rounded=0;" parent="1" vertex="1">
          <mxGeometry x="370" y="692.87" width="60" height="30" as="geometry" />
        </mxCell>
        <mxCell id="mEPZr7rLOJknM6Y2L7Yw-12" value="&amp;lt;&amp;lt;button&amp;gt;&amp;gt;" style="text;html=1;strokeColor=none;fillColor=none;align=center;verticalAlign=middle;whiteSpace=wrap;rounded=0;" parent="1" vertex="1">
          <mxGeometry x="367" y="452.87" width="60" height="30" as="geometry" />
        </mxCell>
        <mxCell id="mEPZr7rLOJknM6Y2L7Yw-13" value="&amp;lt;&amp;lt;button&amp;gt;&amp;gt;" style="text;html=1;strokeColor=none;fillColor=none;align=center;verticalAlign=middle;whiteSpace=wrap;rounded=0;" parent="1" vertex="1">
          <mxGeometry x="620" y="466" width="60" height="30" as="geometry" />
        </mxCell>
        <mxCell id="mEPZr7rLOJknM6Y2L7Yw-14" value="&amp;lt;&amp;lt;button&amp;gt;&amp;gt;" style="text;html=1;strokeColor=none;fillColor=none;align=center;verticalAlign=middle;whiteSpace=wrap;rounded=0;" parent="1" vertex="1">
          <mxGeometry x="620" y="567.88" width="60" height="30" as="geometry" />
        </mxCell>
        <mxCell id="mEPZr7rLOJknM6Y2L7Yw-15" value="&amp;lt;&amp;lt;button&amp;gt;&amp;gt;" style="text;html=1;strokeColor=none;fillColor=none;align=center;verticalAlign=middle;whiteSpace=wrap;rounded=0;" parent="1" vertex="1">
          <mxGeometry x="620" y="646" width="60" height="30" as="geometry" />
        </mxCell>
        <mxCell id="mEPZr7rLOJknM6Y2L7Yw-18" style="edgeStyle=orthogonalEdgeStyle;rounded=0;orthogonalLoop=1;jettySize=auto;html=1;exitX=0.5;exitY=1;exitDx=0;exitDy=0;" parent="1" source="ifJcrgHHRRP8PeEXDCk2-6" target="ifJcrgHHRRP8PeEXDCk2-6" edge="1">
          <mxGeometry relative="1" as="geometry" />
        </mxCell>
        <mxCell id="mEPZr7rLOJknM6Y2L7Yw-19" value="&amp;lt;&amp;lt;button&amp;gt;&amp;gt;" style="text;html=1;strokeColor=none;fillColor=none;align=center;verticalAlign=middle;whiteSpace=wrap;rounded=0;" parent="1" vertex="1">
          <mxGeometry x="843" y="252.25" width="60" height="30" as="geometry" />
        </mxCell>
        <mxCell id="mEPZr7rLOJknM6Y2L7Yw-20" value="&amp;lt;&amp;lt;button&amp;gt;&amp;gt;" style="text;html=1;strokeColor=none;fillColor=none;align=center;verticalAlign=middle;whiteSpace=wrap;rounded=0;" parent="1" vertex="1">
          <mxGeometry x="843" y="331.63" width="60" height="30" as="geometry" />
        </mxCell>
        <mxCell id="mEPZr7rLOJknM6Y2L7Yw-21" value="&amp;lt;&amp;lt;button&amp;gt;&amp;gt;" style="text;html=1;strokeColor=none;fillColor=none;align=center;verticalAlign=middle;whiteSpace=wrap;rounded=0;" parent="1" vertex="1">
          <mxGeometry x="843" y="411" width="60" height="30" as="geometry" />
        </mxCell>
        <mxCell id="mEPZr7rLOJknM6Y2L7Yw-22" value="&amp;lt;&amp;lt;button&amp;gt;&amp;gt;" style="text;html=1;strokeColor=none;fillColor=none;align=center;verticalAlign=middle;whiteSpace=wrap;rounded=0;" parent="1" vertex="1">
          <mxGeometry x="1083" y="254.13" width="60" height="30" as="geometry" />
        </mxCell>
        <mxCell id="mEPZr7rLOJknM6Y2L7Yw-26" value="&amp;lt;&amp;lt;button&amp;gt;&amp;gt;" style="text;html=1;strokeColor=none;fillColor=none;align=center;verticalAlign=middle;whiteSpace=wrap;rounded=0;" parent="1" vertex="1">
          <mxGeometry x="1083" y="332.88" width="60" height="30" as="geometry" />
        </mxCell>
        <mxCell id="mEPZr7rLOJknM6Y2L7Yw-27" value="&amp;lt;&amp;lt;button&amp;gt;&amp;gt;" style="text;html=1;strokeColor=none;fillColor=none;align=center;verticalAlign=middle;whiteSpace=wrap;rounded=0;" parent="1" vertex="1">
          <mxGeometry x="1083" y="412.88" width="60" height="30" as="geometry" />
        </mxCell>
        <mxCell id="mEPZr7rLOJknM6Y2L7Yw-28" value="&amp;lt;&amp;lt;button&amp;gt;&amp;gt;" style="text;html=1;strokeColor=none;fillColor=none;align=center;verticalAlign=middle;whiteSpace=wrap;rounded=0;" parent="1" vertex="1">
          <mxGeometry x="1083" y="492.88" width="60" height="30" as="geometry" />
        </mxCell>
        <mxCell id="mEPZr7rLOJknM6Y2L7Yw-29" value="&amp;lt;&amp;lt;button&amp;gt;&amp;gt;" style="text;html=1;strokeColor=none;fillColor=none;align=center;verticalAlign=middle;whiteSpace=wrap;rounded=0;" parent="1" vertex="1">
          <mxGeometry x="1280" y="264.13" width="60" height="30" as="geometry" />
        </mxCell>
        <mxCell id="mEPZr7rLOJknM6Y2L7Yw-31" value="&amp;lt;&amp;lt;button&amp;gt;&amp;gt;" style="text;html=1;strokeColor=none;fillColor=none;align=center;verticalAlign=middle;whiteSpace=wrap;rounded=0;" parent="1" vertex="1">
          <mxGeometry x="1280" y="346.63" width="60" height="30" as="geometry" />
        </mxCell>
        <mxCell id="mEPZr7rLOJknM6Y2L7Yw-32" value="&amp;lt;&amp;lt;button&amp;gt;&amp;gt;" style="text;html=1;strokeColor=none;fillColor=none;align=center;verticalAlign=middle;whiteSpace=wrap;rounded=0;" parent="1" vertex="1">
          <mxGeometry x="1280" y="508.5" width="60" height="30" as="geometry" />
        </mxCell>
        <mxCell id="mEPZr7rLOJknM6Y2L7Yw-33" value="&amp;lt;&amp;lt;button&amp;gt;&amp;gt;" style="text;html=1;strokeColor=none;fillColor=none;align=center;verticalAlign=middle;whiteSpace=wrap;rounded=0;" parent="1" vertex="1">
          <mxGeometry x="1280" y="588.5" width="60" height="30" as="geometry" />
        </mxCell>
        <mxCell id="mEPZr7rLOJknM6Y2L7Yw-34" value="&amp;lt;&amp;lt;button&amp;gt;&amp;gt;" style="text;html=1;strokeColor=none;fillColor=none;align=center;verticalAlign=middle;whiteSpace=wrap;rounded=0;" parent="1" vertex="1">
          <mxGeometry x="843" y="572.25" width="60" height="30" as="geometry" />
        </mxCell>
        <mxCell id="mEPZr7rLOJknM6Y2L7Yw-36" value="&amp;lt;&amp;lt;button&amp;gt;&amp;gt;" style="text;html=1;strokeColor=none;fillColor=none;align=center;verticalAlign=middle;whiteSpace=wrap;rounded=0;" parent="1" vertex="1">
          <mxGeometry x="625" y="1087" width="60" height="30" as="geometry" />
        </mxCell>
        <mxCell id="mEPZr7rLOJknM6Y2L7Yw-37" value="&amp;lt;&amp;lt;button&amp;gt;&amp;gt;" style="text;html=1;strokeColor=none;fillColor=none;align=center;verticalAlign=middle;whiteSpace=wrap;rounded=0;" parent="1" vertex="1">
          <mxGeometry x="625" y="1177" width="60" height="30" as="geometry" />
        </mxCell>
        <mxCell id="mEPZr7rLOJknM6Y2L7Yw-39" value="&amp;lt;&amp;lt;button&amp;gt;&amp;gt;" style="text;html=1;strokeColor=none;fillColor=none;align=center;verticalAlign=middle;whiteSpace=wrap;rounded=0;" parent="1" vertex="1">
          <mxGeometry x="625" y="1257" width="60" height="30" as="geometry" />
        </mxCell>
        <mxCell id="mEPZr7rLOJknM6Y2L7Yw-40" value="&amp;lt;&amp;lt;button&amp;gt;&amp;gt;" style="text;html=1;strokeColor=none;fillColor=none;align=center;verticalAlign=middle;whiteSpace=wrap;rounded=0;" parent="1" vertex="1">
          <mxGeometry x="625" y="1347" width="60" height="30" as="geometry" />
        </mxCell>
        <mxCell id="mEPZr7rLOJknM6Y2L7Yw-41" value="&amp;lt;&amp;lt;button&amp;gt;&amp;gt;" style="text;html=1;strokeColor=none;fillColor=none;align=center;verticalAlign=middle;whiteSpace=wrap;rounded=0;" parent="1" vertex="1">
          <mxGeometry x="625" y="1422" width="60" height="30" as="geometry" />
        </mxCell>
        <mxCell id="mEPZr7rLOJknM6Y2L7Yw-42" value="&amp;lt;&amp;lt;button&amp;gt;&amp;gt;" style="text;html=1;strokeColor=none;fillColor=none;align=center;verticalAlign=middle;whiteSpace=wrap;rounded=0;" parent="1" vertex="1">
          <mxGeometry x="895" y="987" width="60" height="30" as="geometry" />
        </mxCell>
        <mxCell id="mEPZr7rLOJknM6Y2L7Yw-44" value="&amp;lt;&amp;lt;button&amp;gt;&amp;gt;" style="text;html=1;strokeColor=none;fillColor=none;align=center;verticalAlign=middle;whiteSpace=wrap;rounded=0;" parent="1" vertex="1">
          <mxGeometry x="898" y="1057" width="60" height="30" as="geometry" />
        </mxCell>
        <mxCell id="mEPZr7rLOJknM6Y2L7Yw-45" value="&amp;lt;&amp;lt;button&amp;gt;&amp;gt;" style="text;html=1;strokeColor=none;fillColor=none;align=center;verticalAlign=middle;whiteSpace=wrap;rounded=0;" parent="1" vertex="1">
          <mxGeometry x="895" y="1227" width="60" height="30" as="geometry" />
        </mxCell>
        <mxCell id="16KeeTD6f36M3qxBFshb-1" value="" style="rounded=0;whiteSpace=wrap;html=1;" vertex="1" parent="1">
          <mxGeometry x="580" y="46" width="140" height="320" as="geometry" />
        </mxCell>
        <mxCell id="16KeeTD6f36M3qxBFshb-2" value="&amp;lt;&amp;lt;Window&amp;gt;&amp;gt;" style="text;html=1;strokeColor=none;fillColor=none;align=center;verticalAlign=middle;whiteSpace=wrap;rounded=0;" vertex="1" parent="1">
          <mxGeometry x="620" y="46" width="60" height="30" as="geometry" />
        </mxCell>
        <mxCell id="16KeeTD6f36M3qxBFshb-3" value="Songs" style="rounded=0;whiteSpace=wrap;html=1;" vertex="1" parent="1">
          <mxGeometry x="590" y="146" width="120" height="60" as="geometry" />
        </mxCell>
        <mxCell id="16KeeTD6f36M3qxBFshb-4" value="&lt;div&gt;Songlist&lt;/div&gt;" style="text;html=1;strokeColor=none;fillColor=none;align=center;verticalAlign=middle;whiteSpace=wrap;rounded=0;" vertex="1" parent="1">
          <mxGeometry x="612.57" y="56" width="60" height="60" as="geometry" />
        </mxCell>
        <mxCell id="16KeeTD6f36M3qxBFshb-5" value="Profile" style="rounded=0;whiteSpace=wrap;html=1;" vertex="1" parent="1">
          <mxGeometry x="590" y="216" width="120" height="50" as="geometry" />
        </mxCell>
        <mxCell id="16KeeTD6f36M3qxBFshb-6" value="FilterList" style="rounded=0;whiteSpace=wrap;html=1;" vertex="1" parent="1">
          <mxGeometry x="590" y="276" width="120" height="70" as="geometry" />
        </mxCell>
        <mxCell id="16KeeTD6f36M3qxBFshb-7" value="&amp;lt;&amp;lt;button&amp;gt;&amp;gt;" style="text;html=1;strokeColor=none;fillColor=none;align=center;verticalAlign=middle;whiteSpace=wrap;rounded=0;" vertex="1" parent="1">
          <mxGeometry x="620" y="146" width="60" height="30" as="geometry" />
        </mxCell>
        <mxCell id="16KeeTD6f36M3qxBFshb-8" value="&amp;lt;&amp;lt;button&amp;gt;&amp;gt;" style="text;html=1;strokeColor=none;fillColor=none;align=center;verticalAlign=middle;whiteSpace=wrap;rounded=0;" vertex="1" parent="1">
          <mxGeometry x="620" y="216" width="60" height="30" as="geometry" />
        </mxCell>
        <mxCell id="16KeeTD6f36M3qxBFshb-9" value="&amp;lt;&amp;lt;button&amp;gt;&amp;gt;" style="text;html=1;strokeColor=none;fillColor=none;align=center;verticalAlign=middle;whiteSpace=wrap;rounded=0;" vertex="1" parent="1">
          <mxGeometry x="620" y="276" width="60" height="30" as="geometry" />
        </mxCell>
        <mxCell id="16KeeTD6f36M3qxBFshb-10" value="" style="endArrow=classic;html=1;rounded=0;exitX=1.003;exitY=0.783;exitDx=0;exitDy=0;exitPerimeter=0;entryX=1;entryY=0.25;entryDx=0;entryDy=0;" edge="1" parent="1" source="16KeeTD6f36M3qxBFshb-1" target="ifJcrgHHRRP8PeEXDCk2-99">
          <mxGeometry width="50" height="50" relative="1" as="geometry">
            <mxPoint x="740" y="416" as="sourcePoint" />
            <mxPoint x="750" y="516" as="targetPoint" />
            <Array as="points">
              <mxPoint x="740" y="297" />
              <mxPoint x="740" y="492" />
            </Array>
          </mxGeometry>
        </mxCell>
        <mxCell id="16KeeTD6f36M3qxBFshb-11" value="Select any song" style="text;html=1;strokeColor=none;fillColor=none;align=center;verticalAlign=middle;whiteSpace=wrap;rounded=0;" vertex="1" parent="1">
          <mxGeometry x="640" y="371" width="95" height="30" as="geometry" />
        </mxCell>
        <mxCell id="16KeeTD6f36M3qxBFshb-12" value="" style="endArrow=classic;html=1;rounded=0;exitX=-0.03;exitY=0.169;exitDx=0;exitDy=0;exitPerimeter=0;entryX=1.03;entryY=0.539;entryDx=0;entryDy=0;entryPerimeter=0;" edge="1" parent="1" source="ifJcrgHHRRP8PeEXDCk2-99" target="ifJcrgHHRRP8PeEXDCk2-129">
          <mxGeometry width="50" height="50" relative="1" as="geometry">
            <mxPoint x="730.4199999999996" y="306.55999999999995" as="sourcePoint" />
            <mxPoint x="730" y="502.25" as="targetPoint" />
            <Array as="points">
              <mxPoint x="540" y="466" />
              <mxPoint x="540" y="556" />
            </Array>
          </mxGeometry>
        </mxCell>
        <mxCell id="16KeeTD6f36M3qxBFshb-13" value="" style="endArrow=classic;html=1;rounded=0;exitX=1.003;exitY=0.902;exitDx=0;exitDy=0;exitPerimeter=0;" edge="1" parent="1" source="ifJcrgHHRRP8PeEXDCk2-99">
          <mxGeometry width="50" height="50" relative="1" as="geometry">
            <mxPoint x="730.4199999999996" y="306.55999999999995" as="sourcePoint" />
            <mxPoint x="1113" y="566" as="targetPoint" />
            <Array as="points">
              <mxPoint x="1113" y="706" />
            </Array>
          </mxGeometry>
        </mxCell>
        <mxCell id="16KeeTD6f36M3qxBFshb-14" value="" style="endArrow=classic;html=1;rounded=0;entryX=1;entryY=0.5;entryDx=0;entryDy=0;" edge="1" parent="1" target="ifJcrgHHRRP8PeEXDCk2-34">
          <mxGeometry width="50" height="50" relative="1" as="geometry">
            <mxPoint x="1040" y="546" as="sourcePoint" />
            <mxPoint x="1123" y="572.8800000000001" as="targetPoint" />
            <Array as="points">
              <mxPoint x="1000" y="546" />
              <mxPoint x="1000" y="596" />
            </Array>
          </mxGeometry>
        </mxCell>
        <mxCell id="16KeeTD6f36M3qxBFshb-16" value="" style="endArrow=classic;html=1;rounded=0;entryX=1;entryY=0.5;entryDx=0;entryDy=0;" edge="1" parent="1">
          <mxGeometry width="50" height="50" relative="1" as="geometry">
            <mxPoint x="1040" y="402.88" as="sourcePoint" />
            <mxPoint x="943" y="452.88" as="targetPoint" />
            <Array as="points">
              <mxPoint x="1000" y="402.88" />
              <mxPoint x="1000" y="452.88" />
            </Array>
          </mxGeometry>
        </mxCell>
        <mxCell id="16KeeTD6f36M3qxBFshb-20" value="&amp;lt;&amp;lt;button&amp;gt;&amp;gt;" style="text;html=1;strokeColor=none;fillColor=none;align=center;verticalAlign=middle;whiteSpace=wrap;rounded=0;" vertex="1" parent="1">
          <mxGeometry x="283" y="1077" width="60" height="30" as="geometry" />
        </mxCell>
        <mxCell id="16KeeTD6f36M3qxBFshb-21" value="&amp;lt;&amp;lt;button&amp;gt;&amp;gt;" style="text;html=1;strokeColor=none;fillColor=none;align=center;verticalAlign=middle;whiteSpace=wrap;rounded=0;" vertex="1" parent="1">
          <mxGeometry x="285" y="1157" width="60" height="30" as="geometry" />
        </mxCell>
        <mxCell id="16KeeTD6f36M3qxBFshb-22" value="&amp;lt;&amp;lt;button&amp;gt;&amp;gt;" style="text;html=1;strokeColor=none;fillColor=none;align=center;verticalAlign=middle;whiteSpace=wrap;rounded=0;" vertex="1" parent="1">
          <mxGeometry x="280" y="1317" width="60" height="30" as="geometry" />
        </mxCell>
        <mxCell id="16KeeTD6f36M3qxBFshb-23" value="&amp;lt;&amp;lt;button&amp;gt;&amp;gt;" style="text;html=1;strokeColor=none;fillColor=none;align=center;verticalAlign=middle;whiteSpace=wrap;rounded=0;" vertex="1" parent="1">
          <mxGeometry x="285" y="1497" width="60" height="30" as="geometry" />
        </mxCell>
        <mxCell id="16KeeTD6f36M3qxBFshb-24" value="&amp;lt;&amp;lt;button&amp;gt;&amp;gt;" style="text;html=1;strokeColor=none;fillColor=none;align=center;verticalAlign=middle;whiteSpace=wrap;rounded=0;" vertex="1" parent="1">
          <mxGeometry x="283" y="1577" width="60" height="30" as="geometry" />
        </mxCell>
      </root>
    </mxGraphModel>
  </diagram>
</mxfile>
